SplineFontDB: 3.2
FontName: Basica-BoldItalic
FullName: Basica
FamilyName: Basica
Weight: BoldItalic
Copyright: 
Version: 1.000; ttfautohint (v1.8.2.53-6de2)
ItalicAngle: -9
UnderlinePosition: -113
UnderlineWidth: 50
Ascent: 819
Descent: 205
InvalidEm: 0
sfntRevision: 0x00010000
LayerCount: 2
Layer: 0 1 "Back" 1
Layer: 1 0 "Fore" 0
XUID: [1021 644 -1152176804 10069]
StyleMap: 0x0021
FSType: 0
OS2Version: 4
OS2_WeightWidthSlopeOnly: 0
OS2_UseTypoMetrics: 1
CreationTime: 1592915285
ModificationTime: 1614129036
PfmFamily: 81
TTFWeight: 700
TTFWidth: 5
LineGap: 0
VLineGap: 0
Panose: 0 0 0 0 0 0 0 0 0 0
OS2TypoAscent: 1035
OS2TypoAOffset: 0
OS2TypoDescent: -361
OS2TypoDOffset: 0
OS2TypoLinegap: 0
OS2WinAscent: 1103
OS2WinAOffset: 0
OS2WinDescent: 307
OS2WinDOffset: 0
HheadAscent: 1035
HheadAOffset: 0
HheadDescent: -361
HheadDOffset: 0
OS2SubXSize: 666
OS2SubYSize: 614
OS2SubXOff: 0
OS2SubYOff: 77
OS2SupXSize: 666
OS2SupYSize: 614
OS2SupXOff: 0
OS2SupYOff: 358
OS2StrikeYSize: 40
OS2StrikeYPos: 301
OS2CapHeight: 722
OS2XHeight: 500
OS2Vendor: 'NONE'
OS2CodePages: 20000197.00000000
OS2UnicodeRanges: a00002ff.5000204b.00000000.00000000
Lookup: 1 0 0 "'aalt' Activar todas las variantes lookup 0" { "'aalt' Activar todas las variantes lookup 0 subtable"  } ['aalt' ('DFLT' <'dflt' > 'cyrl' <'BSH ' 'CHU ' 'dflt' > 'latn' <'AZE ' 'CAT ' 'CRT ' 'KAZ ' 'MOL ' 'NLD ' 'ROM ' 'TAT ' 'TRK ' 'dflt' > ) ]
Lookup: 3 0 0 "'aalt' Activar todas las variantes lookup 1" { "'aalt' Activar todas las variantes lookup 1 subtable"  } ['aalt' ('DFLT' <'dflt' > 'cyrl' <'BSH ' 'CHU ' 'dflt' > 'latn' <'AZE ' 'CAT ' 'CRT ' 'KAZ ' 'MOL ' 'NLD ' 'ROM ' 'TAT ' 'TRK ' 'dflt' > ) ]

StartChar: A
Encoding: 65 65 0
Width: 707
GlyphClass: 2
Flags: W
HStem: -7 21G<72 97 608 632.5> 177 122<305 496> 709 20G<456.5 481.5>
LayerCount: 2
Fore
SplineSet
519 693 m 2
 684 73 l 2
 685 69 686 65 686 60 c 7
 686 20 646 -7 619 -7 c 7
 597 -7 578 7 572 28 c 2
 529 177 l 1
 234 177 l 1
 143 28 l 2
 130 7 108 -7 86 -7 c 3
 58 -7 38 17 38 44 c 3
 38 59 42 65 47 73 c 2
 408 693 l 2
 421 715 444 729 469 729 c 3
 494 729 513 715 519 693 c 2
437 527 m 1
 305 299 l 1
 496 299 l 1
 437 527 l 1
EndSplineSet
Substitution2: "Single Substitution lookup 29 subtable" ordfeminine
Substitution2: "'aalt' Activar todas las variantes lookup 0 subtable" ordfeminine
EndChar

StartChar: Atilde
Encoding: 195 195 5
Width: 707
GlyphClass: 2
Flags: W
HStem: -7 21G<72 97 608 632.5> 177 122<305 496> 709 20G<456.5 481.5> 769 102<539.368 637.396> 841 102<354.604 452.632>
VStem: 246 99<772.456 833.611> 647 99<878.389 939.544>
LayerCount: 2
Fore
SplineSet
695 949 m 7xf6
 723 949 746 926 746 898 c 7
 746 849 692 769 600 769 c 7xf6
 540 769 505 793 465 813 c 4
 425 833 406 841 392 841 c 7
 367 841 354 827 345 798 c 4
 338 777 319 763 297 763 c 7
 269 763 246 786 246 814 c 7
 246 863 300 943 392 943 c 7xee
 452 943 487 919 527 899 c 4
 567 879 586 871 600 871 c 7
 625 871 638 885 647 914 c 4
 654 935 673 949 695 949 c 7xf6
EndSplineSet
Refer: 0 65 N 1 0 0 1 0 0 2
EndChar

StartChar: B
Encoding: 66 66 6
Width: 711
GlyphClass: 2
Flags: W
HStem: -0 122<215 523.596> 322 122<266 546.031> 600 122<291 562.505>
VStem: 578 113<175.289 297.131> 587 119<480.371 578.459>
LayerCount: 2
Fore
SplineSet
706 574 m 3xe8
 706 490 664 429 617 395 c 1
 666 366 691 317 691 256 c 7xf0
 691 73 542 0 430 -0 c 2
 140 -0 l 2
 112 0 92 21 92 49 c 0
 92 52 92 55 93 58 c 2
 189 664 l 2
 194 696 223 722 254 722 c 2
 534 722 l 2
 639 722 706 670 706 574 c 3xe8
266 444 m 1
 463 444 l 2
 529 444 587 477 587 534 c 3xe8
 587 582 535 600 488 600 c 2
 291 600 l 1
 266 444 l 1
247 322 m 1
 215 122 l 1
 449 122 l 2
 525 122 578 175 578 243 c 7xf0
 578 317 508 322 440 322 c 2
 247 322 l 1
EndSplineSet
EndChar

StartChar: C
Encoding: 67 67 7
Width: 700
GlyphClass: 2
Flags: W
HStem: -9 122<332.632 562.415> 609 122<407.536 630.116>
VStem: 104 114<231.056 423.496>
LayerCount: 2
Fore
SplineSet
218 329 m 3
 218 221 298 113 422 113 c 3
 476 113 529 115 578 143 c 0
 590 150 602 159 618 159 c 7
 646 159 665 138 665 109 c 7
 665 75 642 51 621 39 c 0
 551 -3 468 -9 403 -9 c 3
 227 -9 104 128 104 302 c 3
 104 549 323 731 524 731 c 3
 602 731 661 723 727 681 c 0
 741 672 749 656 749 637 c 3
 749 592 710 565 682 565 c 3
 667 565 658 571 647 578 c 0
 603 605 553 609 504 609 c 3
 359 609 218 465 218 329 c 3
EndSplineSet
EndChar

StartChar: D
Encoding: 68 68 9
Width: 792
GlyphClass: 2
Flags: W
HStem: 0 122<218 520.48> 600 122<294 579.312>
VStem: 679 117<286.113 498.862>
LayerCount: 2
Fore
SplineSet
513 722 m 2
 677 722 796 597 796 421 c 7
 796 134 567 0 404 0 c 2
 141 0 l 2
 112 0 92 21 92 49 c 0
 92 52 92 55 93 58 c 2
 189 664 l 2
 194 696 223 722 255 722 c 2
 513 722 l 2
679 401 m 7
 679 526 591 600 494 600 c 2
 294 600 l 1
 218 122 l 1
 423 122 l 2
 588 122 679 260 679 401 c 7
EndSplineSet
EndChar

StartChar: E
Encoding: 69 69 10
Width: 601
GlyphClass: 2
Flags: W
HStem: 0 122<193 527.895> 326 122<245 545.489> 600 122<269 622.895>
LayerCount: 2
Fore
SplineSet
169 664 m 2
 174 696 202 722 233 722 c 2
 596 722 l 2
 624 722 643 701 643 672 c 3
 643 628 605 600 577 600 c 2
 269 600 l 1
 245 448 l 1
 518 448 l 2
 546 448 564 427 564 398 c 3
 564 351 527 326 499 326 c 2
 226 326 l 1
 193 122 l 1
 501 122 l 2
 529 122 548 101 548 72 c 7
 548 28 510 0 482 0 c 2
 119 0 l 2
 91 0 72 21 72 48 c 0
 72 51 72 55 73 58 c 2
 169 664 l 2
EndSplineSet
EndChar

StartChar: F
Encoding: 70 70 15
Width: 590
GlyphClass: 2
Flags: W
HStem: 326 122<267 574.059> 600 122<291 652.442>
LayerCount: 2
Fore
SplineSet
189 664 m 2
 194 696 223 722 254 722 c 2
 625 722 l 2
 653 722 673 701 673 672 c 3
 673 627 634 600 606 600 c 2
 291 600 l 1
 267 448 l 1
 546 448 l 2
 574 448 593 427 593 398 c 3
 593 352 555 326 527 326 c 2
 248 326 l 1
 205 58 l 2
 200 26 171 0 140 0 c 7
 112 0 92 21 92 49 c 0
 92 52 92 55 93 58 c 2
 189 664 l 2
EndSplineSet
EndChar

StartChar: G
Encoding: 71 71 16
Width: 770
GlyphClass: 2
Flags: W
HStem: -9 122<350.774 577.689> 278 122<460.09 623> 609 122<433.518 649.754>
VStem: 110 115<224.406 421.373> 439 308<287.328 378.809>
LayerCount: 2
Fore
SplineSet
225 316 m 3
 225 172 348 113 474 113 c 3
 528 113 576 132 602 146 c 1
 623 278 l 1
 623 278 535 278 491 278 c 7
 461 278 439 300 439 329 c 7
 439 375 482 400 510 400 c 2
 699 400 l 2
 727 400 747 379 747 351 c 0
 747 348 747 344 746 341 c 2
 710 112 l 2
 697 31 533 -9 455 -9 c 3
 239 -9 110 107 110 291 c 3
 110 590 370 731 572 731 c 3
 637 731 696 717 751 677 c 0
 764 668 771 652 771 635 c 3
 771 589 732 564 703 564 c 3
 667 564 651 609 552 609 c 3
 354 609 225 477 225 316 c 3
EndSplineSet
EndChar

StartChar: H
Encoding: 72 72 17
Width: 767
GlyphClass: 2
Flags: W
HStem: -7 21G<126.5 155.5 611 640> 320 122<266 622> 709 20G<241 270 725.5 754.5>
LayerCount: 2
Fore
SplineSet
190 671 m 2
 195 704 226 729 256 729 c 0
 284 729 303 708 303 681 c 0
 303 678 303 674 302 671 c 2
 266 442 l 1
 641 442 l 1
 677 671 l 2
 682 703 710 729 741 729 c 0
 768 729 790 708 790 680 c 0
 790 677 790 674 789 671 c 2
 691 51 l 2
 686 18 655 -7 625 -7 c 0
 597 -7 578 14 578 41 c 0
 578 44 578 48 579 51 c 2
 622 320 l 1
 247 320 l 1
 204 51 l 2
 199 19 171 -7 140 -7 c 0
 113 -7 91 14 91 42 c 0
 91 45 91 48 92 51 c 2
 190 671 l 2
EndSplineSet
EndChar

StartChar: I
Encoding: 73 73 18
Width: 332
GlyphClass: 2
Flags: W
HStem: -7 117<77.7024 122 244 271.661> 612 117<174.838 202 324 369.453>
VStem: 57 234<12.9023 88.7716> 156 233<632.069 709.911>
LayerCount: 2
Fore
SplineSet
226 729 m 2xd0
 336 729 l 2
 367 729 389 708 389 680 c 3xd0
 389 637 349 615 324 612 c 1
 244 110 l 1
 271 107 291 86 291 60 c 7
 291 15 246 -7 220 -7 c 2
 110 -7 l 2
 79 -7 57 14 57 42 c 7xe0
 57 82 97 107 122 110 c 1
 202 612 l 1
 175 615 156 636 156 662 c 3
 156 709 200 729 226 729 c 2xd0
EndSplineSet
EndChar

StartChar: J
Encoding: 74 74 23
Width: 550
GlyphClass: 2
Flags: W
HStem: -6 122<193.86 354.137> 607 122<321.095 494>
LayerCount: 2
Fore
SplineSet
437 248 m 2
 494 607 l 1
 367 607 l 2
 326 607 296 631 296 661 c 3
 296 710 358 729 386 729 c 2
 574 729 l 2
 605 729 627 708 627 680 c 0
 627 677 626 674 626 671 c 2
 559 246 l 2
 538 116 415 -6 264 -6 c 7
 161 -6 37 54 37 142 c 3
 37 197 81 218 109 218 c 3
 132 218 149 205 157 187 c 0
 181 131 215 116 283 116 c 7
 365 116 428 194 437 248 c 2
EndSplineSet
EndChar

StartChar: K
Encoding: 75 75 24
Width: 704
GlyphClass: 2
Flags: W
HStem: -7 21G<127 158.5 601.5 627> 709 20G<241.5 273 698 721.5>
LayerCount: 2
Fore
SplineSet
238 225 m 1
 211 54 l 2
 206 20 175 -7 142 -7 c 3
 112 -7 91 14 91 42 c 3
 91 45 92 48 92 51 c 2
 190 671 l 2
 195 703 225 729 258 729 c 3
 288 729 309 707 309 678 c 3
 309 675 309 671 308 668 c 2
 260 369 l 1
 660 710 l 2
 674 722 690 729 706 729 c 3
 737 729 758 709 758 681 c 3
 758 660 747 640 735 630 c 2
 446 387 l 1
 669 89 l 2
 676 80 679 69 679 59 c 7
 679 20 644 -7 610 -7 c 3
 593 -7 578 1 568 14 c 2
 346 315 l 1
 238 225 l 1
EndSplineSet
EndChar

StartChar: L
Encoding: 76 76 25
Width: 568
GlyphClass: 2
Flags: W
HStem: 0 122<213 548.895>
LayerCount: 2
Fore
SplineSet
190 668 m 2
 195 700 223 726 254 726 c 3
 282 726 301 705 301 678 c 3
 301 675 301 671 300 668 c 2
 213 122 l 1
 522 122 l 2
 550 122 569 101 569 72 c 3
 569 28 531 0 503 0 c 2
 139 0 l 2
 111 0 92 21 92 48 c 7
 92 51 92 55 93 58 c 2
 190 668 l 2
EndSplineSet
EndChar

StartChar: M
Encoding: 77 77 26
Width: 897
GlyphClass: 2
Flags: W
HStem: -7 21G<127.5 158 739.5 770> 709 20G<242 268 860 884.5>
LayerCount: 2
Fore
SplineSet
281 510 m 1
 209 54 l 2
 204 20 174 -7 142 -7 c 0
 113 -7 93 14 93 42 c 0
 93 45 93 48 94 51 c 2
 192 671 l 2
 197 703 226 729 258 729 c 0
 278 729 292 718 301 703 c 2
 503 339 l 1
 819 703 l 2
 832 718 850 729 870 729 c 0
 899 729 919 708 919 680 c 0
 919 677 919 674 918 671 c 2
 820 51 l 2
 815 19 786 -7 754 -7 c 0
 725 -7 706 14 706 43 c 0
 706 46 706 50 707 54 c 2
 779 510 l 1
 536 231 l 2
 523 216 502 205 481 205 c 0
 460 205 445 216 436 231 c 2
 281 510 l 1
EndSplineSet
EndChar

StartChar: N
Encoding: 78 78 27
Width: 771
GlyphClass: 2
Flags: W
HStem: -7 21G<125 154.5 622.5 646> 709 20G<240.5 263.5 731.5 761>
LayerCount: 2
Fore
SplineSet
682 668 m 2
 687 702 716 729 747 729 c 0
 775 729 795 708 795 680 c 0
 795 677 795 674 794 671 c 2
 696 51 l 2
 691 18 661 -7 631 -7 c 0
 614 -7 599 1 590 16 c 2
 279 522 l 1
 205 54 l 2
 200 20 170 -7 139 -7 c 0
 111 -7 91 14 91 42 c 0
 91 45 91 48 92 51 c 2
 190 671 l 2
 195 705 226 729 255 729 c 0
 272 729 288 721 297 706 c 2
 608 200 l 1
 682 668 l 2
EndSplineSet
EndChar

StartChar: O
Encoding: 79 79 29
Width: 800
GlyphClass: 2
Flags: W
HStem: -9 122<316.285 527.092> 609 122<387.438 598.292>
VStem: 108 117<206.808 431.059> 690 116<296.008 515.192>
LayerCount: 2
Fore
SplineSet
516 731 m 7
 686 731 806 637 806 446 c 7
 806 217 672 -9 399 -9 c 7
 229 -9 108 85 108 276 c 7
 108 505 243 731 516 731 c 7
496 609 m 7
 324 609 225 470 225 304 c 7
 225 189 290 113 418 113 c 7
 590 113 690 252 690 418 c 7
 690 533 624 609 496 609 c 7
EndSplineSet
Substitution2: "Single Substitution lookup 29 subtable" ordmasculine
Substitution2: "'aalt' Activar todas las variantes lookup 0 subtable" ordmasculine
EndChar

StartChar: Otilde
Encoding: 213 213 34
Width: 800
GlyphClass: 2
Flags: W
HStem: -9 122<316.285 527.092> 609 122<387.438 598.292> 769 102<569.368 667.396> 841 102<384.604 482.632>
VStem: 108 117<206.808 431.059> 276 99<772.456 833.611> 677 99<878.389 939.544> 690 116<296.008 515.192>
LayerCount: 2
Fore
SplineSet
725 949 m 7xee
 753 949 776 926 776 898 c 7
 776 849 722 769 630 769 c 7xee
 570 769 535 793 495 813 c 4
 455 833 436 841 422 841 c 7
 397 841 384 827 375 798 c 4
 368 777 349 763 327 763 c 7
 299 763 276 786 276 814 c 7
 276 863 330 943 422 943 c 7xde
 482 943 517 919 557 899 c 4
 597 879 616 871 630 871 c 7
 655 871 668 885 677 914 c 4
 684 935 703 949 725 949 c 7xee
EndSplineSet
Refer: 29 79 N 1 0 0 1 0 0 2
EndChar

StartChar: P
Encoding: 80 80 35
Width: 627
GlyphClass: 2
Flags: W
HStem: -7 21G<124 153.5> 258 122<255 501.074> 600 122<290 536.051>
VStem: 566 113<438.26 569.778>
LayerCount: 2
Fore
SplineSet
381 258 m 2
 236 258 l 1
 203 51 l 2
 198 19 169 -7 138 -7 c 7
 110 -7 91 14 91 41 c 7
 91 44 91 48 92 51 c 2
 189 664 l 2
 194 696 222 722 253 722 c 2
 454 722 l 2
 592 722 679 664 679 540 c 3
 679 316 496 258 381 258 c 2
255 380 m 1
 400 380 l 2
 506 380 566 425 566 514 c 3
 566 591 494 600 435 600 c 2
 290 600 l 1
 255 380 l 1
EndSplineSet
EndChar

StartChar: Q
Encoding: 81 81 36
Width: 800
GlyphClass: 2
Flags: W
HStem: -9 122<316.285 470.812> 609 122<387.438 598.292>
VStem: 108 117<206.808 431.059> 690 116<291.219 515.192>
LayerCount: 2
Fore
SplineSet
806 446 m 3
 806 299 751 152 638 67 c 1
 696 -38 l 2
 701 -47 703 -57 703 -67 c 7
 703 -104 675 -127 643 -127 c 7
 620 -127 601 -115 591 -96 c 2
 531 11 l 1
 491 -2 448 -9 399 -9 c 3
 229 -9 108 85 108 276 c 3
 108 505 243 731 516 731 c 3
 686 731 806 637 806 446 c 3
225 304 m 3
 225 189 290 113 418 113 c 3
 437 113 455 115 472 118 c 1
 409 233 l 2
 404 242 402 252 402 262 c 3
 402 297 430 322 462 322 c 3
 485 322 504 309 514 291 c 2
 582 168 l 1
 652 224 690 316 690 418 c 3
 690 533 624 609 496 609 c 3
 324 609 225 470 225 304 c 3
EndSplineSet
EndChar

StartChar: R
Encoding: 82 82 37
Width: 662
GlyphClass: 2
Flags: W
HStem: -7 21G<125 154.5 546 572> 258 122<255 418.437> 600 122<290 536.69>
VStem: 567 113<437.09 569.877>
LayerCount: 2
Fore
SplineSet
680 540 m 3
 680 408 610 330 535 291 c 1
 617 84 l 2
 621 75 622 65 622 54 c 7
 622 17 588 -7 556 -7 c 7
 536 -7 521 5 514 22 c 2
 419 260 l 1
 407 259 394 258 381 258 c 2
 236 258 l 1
 203 51 l 2
 198 19 170 -7 139 -7 c 3
 111 -7 91 14 91 42 c 3
 91 45 91 48 92 51 c 2
 189 664 l 2
 194 696 223 722 254 722 c 2
 454 722 l 2
 592 722 680 665 680 540 c 3
255 380 m 1
 400 380 l 2
 506 380 567 425 567 514 c 3
 567 591 494 600 435 600 c 2
 290 600 l 1
 255 380 l 1
EndSplineSet
EndChar

StartChar: S
Encoding: 83 83 38
Width: 617
GlyphClass: 2
Flags: W
HStem: -9 122<219.6 429.45> 609 122<308.487 509.177>
VStem: 137 114<458.48 558.741> 497 112<166.053 264.661>
LayerCount: 2
Fore
SplineSet
590 530 m 3
 574 530 561 536 552 549 c 0
 517 600 458 609 405 609 c 3
 322 609 251 569 251 503 c 3
 251 457 303 426 385 415 c 0
 495 400 609 357 609 237 c 3
 609 56 422 -9 308 -9 c 3
 172 -9 110 52 75 98 c 0
 69 107 65 119 65 131 c 7
 65 177 103 202 131 202 c 7
 146 202 159 196 167 184 c 0
 206 129 254 113 327 113 c 3
 402 113 497 146 497 220 c 3
 497 285 398 299 347 307 c 0
 230 325 137 377 137 485 c 3
 137 638 272 731 425 731 c 3
 535 731 656 674 656 601 c 3
 656 565 626 530 590 530 c 3
EndSplineSet
EndChar

StartChar: T
Encoding: 84 84 39
Width: 585
GlyphClass: 2
Flags: W
HStem: -7 21G<275.5 308> 600 122<120.455 327 449 675.435>
LayerCount: 2
Fore
SplineSet
166 722 m 2
 647 722 l 2
 675 722 695 701 695 672 c 3
 695 626 656 600 628 600 c 2
 449 600 l 1
 362 51 l 2
 357 19 325 -7 291 -7 c 7
 260 -7 239 14 239 42 c 7
 239 45 240 48 240 51 c 2
 327 600 l 1
 147 600 l 2
 119 600 100 621 100 650 c 3
 100 695 139 722 166 722 c 2
EndSplineSet
EndChar

StartChar: U
Encoding: 85 85 40
Width: 741
GlyphClass: 2
Flags: W
HStem: -9 122<303.109 482.395> 709 20G<234.5 264 705.5 735>
VStem: 121 114<177.985 408.375>
LayerCount: 2
Fore
SplineSet
185 671 m 2
 190 703 219 729 250 729 c 3
 278 729 298 708 298 680 c 0
 298 677 298 674 297 671 c 2
 237 291 l 2
 235 280 235 270 235 260 c 7
 235 179 287 113 388 113 c 3
 502 113 581 197 596 291 c 2
 656 671 l 2
 661 703 690 729 721 729 c 3
 749 729 769 708 769 680 c 0
 769 677 769 674 768 671 c 2
 707 287 l 2
 683 137 552 -9 369 -9 c 3
 206 -9 121 107 121 238 c 7
 121 254 121 271 124 287 c 2
 185 671 l 2
EndSplineSet
EndChar

StartChar: V
Encoding: 86 86 45
Width: 686
GlyphClass: 2
Flags: W
HStem: -8 21G<329.5 354.5> -8 21G<329.5 354.5> 709 20G<175 200 716 743.5>
LayerCount: 2
Fore
SplineSet
188 729 m 3xa0
 212 729 229 714 235 692 c 2
 371 177 l 1
 671 692 l 2
 683 713 704 729 728 729 c 3
 759 729 777 705 777 680 c 3
 777 669 774 657 769 648 c 2
 403 27 l 2
 391 6 367 -8 342 -8 c 7
 317 -8 296 7 291 27 c 2
 123 648 l 2
 122 652 121 656 121 660 c 3
 121 709 162 729 188 729 c 3xa0
EndSplineSet
EndChar

StartChar: W
Encoding: 87 87 46
Width: 1053
GlyphClass: 2
Flags: W
LayerCount: 2
Fore
SplineSet
1112 661 m 2
 805 34 l 2
 796 15 767 -3 740 -3 c 7
 716 -3 691 14 686 31 c 2
 584 367 l 1
 377 31 l 2
 366 14 337 -3 313 -3 c 7
 286 -3 261 15 258 34 c 2
 151 661 l 2
 150 664 150 667 150 670 c 3
 150 710 182 733 216 733 c 3
 242 733 263 721 266 702 c 2
 354 214 l 1
 554 527 l 2
 564 543 590 559 615 559 c 3
 640 559 660 543 665 527 c 2
 767 214 l 1
 1009 702 l 2
 1018 721 1043 733 1069 733 c 3
 1102 733 1119 714 1119 693 c 3
 1119 682 1116 669 1112 661 c 2
EndSplineSet
EndChar

StartChar: X
Encoding: 88 88 47
Width: 669
GlyphClass: 2
Flags: W
HStem: -7 21G<81.5 104 563 585.5> 709 20G<197.5 220 679 701.5>
LayerCount: 2
Fore
SplineSet
152 635 m 2
 148 642 145 652 145 661 c 3
 145 707 184 729 211 729 c 3
 229 729 245 719 253 705 c 2
 405 447 l 1
 640 705 l 2
 653 719 670 729 688 729 c 3
 715 729 736 709 736 681 c 3
 736 665 728 645 719 635 c 2
 468 361 l 1
 632 87 l 2
 636 80 638 70 638 61 c 3
 638 16 599 -7 572 -7 c 3
 554 -7 539 3 531 17 c 2
 378 275 l 1
 144 17 l 2
 131 3 113 -7 95 -7 c 7
 68 -7 47 13 47 41 c 7
 47 59 56 77 65 87 c 2
 315 361 l 1
 152 635 l 2
EndSplineSet
EndChar

StartChar: Y
Encoding: 89 89 48
Width: 646
GlyphClass: 2
Flags: W
HStem: -7 21G<307 340.5> 709 20G<180 203.5 672.5 696>
LayerCount: 2
Fore
SplineSet
134 635 m 2
 130 642 127 650 127 659 c 3
 127 708 166 729 194 729 c 3
 213 729 228 719 237 705 c 2
 394 447 l 1
 633 705 l 2
 646 719 663 729 682 729 c 3
 710 729 731 709 731 681 c 3
 731 658 723 645 714 635 c 2
 440 342 l 1
 394 51 l 2
 389 19 358 -7 323 -7 c 7
 291 -7 269 14 269 42 c 7
 269 45 270 48 270 51 c 2
 316 341 l 1
 134 635 l 2
EndSplineSet
EndChar

StartChar: Z
Encoding: 90 90 49
Width: 629
GlyphClass: 2
Flags: W
HStem: 0 122<231 604.989> 600 122<183.278 519>
LayerCount: 2
Fore
SplineSet
230 722 m 2
 654 722 l 2
 683 722 702 701 702 674 c 3
 702 656 695 641 686 631 c 2
 231 122 l 1
 577 122 l 2
 606 122 626 101 626 72 c 7
 626 27 586 0 558 0 c 2
 98 0 l 2
 69 0 49 21 49 49 c 3
 49 68 56 81 65 91 c 2
 519 600 l 1
 211 600 l 2
 183 600 164 621 164 650 c 3
 164 698 203 722 230 722 c 2
EndSplineSet
EndChar

StartChar: a
Encoding: 97 97 50
Width: 591
GlyphClass: 2
Flags: W
HStem: -9 122<240.914 395.539> 387 122<274.861 430.863> 479 20G<561.5 587>
VStem: 79 113<161.223 303.873> 479 141<231 465.5>
LayerCount: 2
Fore
SplineSet
295 -9 m 3xb8
 162 -9 79 86 79 206 c 3
 79 414 261 509 377 509 c 3xd8
 432 509 480 492 516 463 c 1
 527 484 550 499 573 499 c 3
 601 499 620 479 620 452 c 7
 620 449 620 445 619 442 c 2
 558 58 l 2
 553 26 525 1 494 1 c 3
 471 1 454 16 449 37 c 1
 403 8 350 -9 295 -9 c 3xb8
479 271 m 3
 479 339 426 387 357 387 c 3
 265 387 192 309 192 229 c 3
 192 161 244 113 314 113 c 3
 406 113 479 191 479 271 c 3
EndSplineSet
Substitution2: "'ss01' Estilo 1 lookup 35 subtable" a.ss01
Substitution2: "'salt' Alternativas estil+AO0A-sticas lookup 34 subtable" a.ss01
Substitution2: "Single Substitution lookup 29 subtable" ordfeminine
AlternateSubs2: "'aalt' Activar todas las variantes lookup 1 subtable" a.ss01 ordfeminine
EndChar

StartChar: atilde
Encoding: 227 227 55
Width: 591
GlyphClass: 2
Flags: W
HStem: -9 122<240.914 395.539> 387 122<274.861 430.863> 479 20G<561.5 587> 575 102<433.612 516.702> 647 102<277.298 360.388>
VStem: 79 113<161.223 303.873> 184 85<575.95 642.202> 479 141<231 465.5> 525 85<681.798 748.05>
LayerCount: 2
Fore
SplineSet
566 755 m 7x9280
 590 755 610 732 610 704 c 7
 610 655 563 575 485 575 c 7x9280
 434 575 405 599 371 619 c 4
 337 639 321 647 309 647 c 7
 288 647 277 633 269 604 c 4
 263 583 246 569 228 569 c 7
 204 569 184 592 184 620 c 7
 184 669 231 749 309 749 c 7x8a80
 360 749 389 725 423 705 c 4
 457 685 473 677 485 677 c 7
 506 677 517 691 525 720 c 4
 531 741 548 755 566 755 c 7x9280
EndSplineSet
Refer: 50 97 N 1 0 0 1 0 0 2
Substitution2: "'ss01' Estilo 1 lookup 35 subtable" atilde.ss01
Substitution2: "'salt' Alternativas estil+AO0A-sticas lookup 34 subtable" atilde.ss01
Substitution2: "'aalt' Activar todas las variantes lookup 0 subtable" atilde.ss01
EndChar

StartChar: b
Encoding: 98 98 56
Width: 624
GlyphClass: 2
Flags: W
HStem: -9 122<270.52 422.842> 387 122<305.74 460.371> 709 20G<228.5 258>
VStem: 80 143<26 268> 509 114<196.919 338.63>
LayerCount: 2
Fore
SplineSet
179 668 m 2
 184 702 213 729 244 729 c 3
 272 729 292 708 292 679 c 3
 292 676 292 672 291 668 c 2
 259 467 l 1
 303 493 355 509 407 509 c 3
 540 509 623 413 623 293 c 3
 623 95 441 -9 325 -9 c 3
 272 -9 225 8 188 35 c 1
 178 10 154 -9 128 -9 c 7
 100 -9 80 12 80 40 c 7
 80 43 80 46 81 49 c 2
 179 668 l 2
509 272 m 3
 509 340 456 387 387 387 c 3
 292 387 223 308 223 228 c 3
 223 160 275 113 344 113 c 3
 433 113 509 188 509 272 c 3
EndSplineSet
EndChar

StartChar: c
Encoding: 99 99 57
Width: 489
GlyphClass: 2
Flags: W
HStem: -9 122<230.658 387.511> 387 122<267.463 423.541>
VStem: 66 111<163.114 302.08>
LayerCount: 2
Fore
SplineSet
429 150 m 7
 456 150 474 129 474 100 c 7
 474 20 353 -9 291 -9 c 7
 152 -9 66 85 66 207 c 3
 66 385 221 509 373 509 c 3
 429 509 525 483 525 422 c 3
 525 387 499 350 460 350 c 3
 421 350 425 387 353 387 c 3
 260 387 177 313 177 230 c 3
 177 163 233 113 310 113 c 7
 383 113 389 150 429 150 c 7
EndSplineSet
EndChar

StartChar: d
Encoding: 100 100 59
Width: 624
GlyphClass: 2
Flags: W
HStem: -9 122<241.309 395.545> 387 122<279.688 430.769> 709 20G<593.5 623>
VStem: 79 114<160.892 301.495>
LayerCount: 2
Fore
SplineSet
544 668 m 2
 549 702 578 729 609 729 c 3
 637 729 657 708 657 679 c 0
 657 676 657 672 656 668 c 2
 558 49 l 2
 553 17 524 -9 493 -9 c 7
 467 -9 449 10 447 35 c 1
 402 8 348 -9 295 -9 c 3
 162 -9 79 86 79 206 c 3
 79 382 229 509 377 509 c 3
 429 509 476 493 512 467 c 1
 544 668 l 2
479 272 m 3
 479 340 426 387 357 387 c 3
 265 387 193 308 193 228 c 3
 193 160 245 113 314 113 c 3
 404 113 479 188 479 272 c 3
EndSplineSet
EndChar

StartChar: e
Encoding: 101 101 60
Width: 562
GlyphClass: 2
Flags: W
HStem: -9 122<234.291 418.3> 204 102<218 449> 405 104<289.865 417.47>
VStem: 449 118<306.244 370.647>
LayerCount: 2
Fore
SplineSet
499 204 m 2
 192 204 l 1
 201 150 242 113 313 113 c 3
 444 113 427 165 479 165 c 3
 508 165 525 142 525 115 c 3
 525 33 385 -9 294 -9 c 3
 161 -9 78 87 78 207 c 3
 78 396 239 509 376 509 c 3
 511 509 567 413 567 309 c 7
 567 250 553 204 499 204 c 2
359 405 m 3
 289 405 237 343 218 306 c 1
 449 306 l 1
 446 343 429 405 359 405 c 3
EndSplineSet
EndChar

StartChar: f
Encoding: 102 102 65
Width: 391
GlyphClass: 2
Flags: W
HStem: -8 21G<142.5 179> -8 21G<142.5 179> 381 122<89.1376 156 310 427.199> 603 122<330.538 462.615>
LayerCount: 2
Fore
SplineSet
176 503 m 5xb0
 183 552 l 6
 198 646 283 725 405 725 c 7
 453 725 510 706 510 656 c 7
 510 609 470 584 442 584 c 7
 414 584 415 603 386 603 c 7
 346 603 322 582 317 552 c 6
 310 503 l 5
 399 503 l 6
 428 503 447 482 447 453 c 7
 447 405 407 381 379 381 c 6
 290 381 l 5
 238 48 l 6
 233 17 198 -8 160 -8 c 7
 125 -8 103 13 103 40 c 7
 103 43 104 45 104 48 c 6
 156 381 l 5
 117 381 l 6
 88 381 69 402 69 431 c 7
 69 479 110 503 137 503 c 6
 176 503 l 5xb0
EndSplineSet
EndChar

StartChar: g
Encoding: 103 103 66
Width: 629
GlyphClass: 2
Flags: W
HStem: -194 118<181.072 396.173> -10 122<243.661 400.746> 387 122<279.262 435.954>
VStem: 79 115<160.558 302.008>
LayerCount: 2
Fore
SplineSet
573 104 m 2
 541 -101 464 -194 287 -194 c 3
 205 -194 129 -190 74 -134 c 0
 65 -125 58 -111 58 -96 c 3
 58 -50 99 -26 126 -26 c 3
 187 -26 138 -76 310 -76 c 3
 403 -76 424 -35 444 29 c 1
 399 4 349 -10 298 -10 c 3
 163 -10 79 85 79 206 c 3
 79 389 237 509 381 509 c 3
 437 509 486 492 523 463 c 1
 535 483 558 497 580 497 c 7
 608 497 627 476 627 448 c 7
 627 445 628 442 627 439 c 2
 573 104 l 2
194 228 m 3
 194 160 248 112 318 112 c 3
 410 112 485 189 485 270 c 3
 485 338 431 387 361 387 c 3
 271 387 194 312 194 228 c 3
EndSplineSet
EndChar

StartChar: h
Encoding: 104 104 67
Width: 609
GlyphClass: 2
Flags: W
HStem: -7 21G<112 141.5 467 496.5> 389 122<313.881 453.737> 709 20G<226.5 256>
VStem: 78 112<9.55178 95.592> 472 113<214.873 368.11>
LayerCount: 2
Fore
SplineSet
126 -7 m 0
 98 -7 78 14 78 42 c 3
 78 45 78 48 79 51 c 2
 177 668 l 2
 182 702 211 729 242 729 c 3
 270 729 289 708 289 679 c 3
 289 675 289 672 288 668 c 2
 256 468 l 1
 300 496 352 511 406 511 c 3
 545 511 585 437 585 336 c 3
 585 309 583 281 578 252 c 2
 546 50 l 2
 541 18 512 -7 481 -7 c 7
 453 -7 434 13 434 40 c 7
 434 43 435 46 435 49 c 2
 466 247 l 2
 469 268 472 288 472 305 c 3
 472 357 452 389 387 389 c 3
 292 389 228 293 212 192 c 2
 190 49 l 2
 185 18 157 -7 126 -7 c 0
EndSplineSet
EndChar

StartChar: dotlessi
Encoding: 305 305 69
Width: 268
GlyphClass: 2
Flags: W
HStem: -6 21G<116.5 148.5> 485 20G<196 228>
VStem: 80 1<42.1406 50.8594> 266 1<448.14 455.86>
LayerCount: 2
Fore
SplineSet
213 505 m 3
 243 505 267 484 267 456 c 0
 267 453 266 451 266 448 c 2
 203 51 l 2
 198 19 165 -6 132 -6 c 3
 101 -6 80 15 80 42 c 0
 80 45 81 48 81 51 c 2
 144 448 l 2
 149 479 179 505 213 505 c 3
EndSplineSet
EndChar

StartChar: j
Encoding: 106 106 74
Width: 279
Flags: W
HStem: -195 122<-68.0926 54.9182> 487 20G<205 237.5> 590 162<198.536 310.988>
VStem: 173 163<616.432 725.568>
LayerCount: 2
Fore
SplineSet
275 458 m 3
 275 455 274 452 274 449 c 2
 208 32 l 2
 179 -150 76 -195 -36 -195 c 3
 -67 -195 -88 -173 -88 -144 c 3
 -88 -95 -45 -73 -17 -73 c 7
 62 -73 73 -47 86 34 c 2
 152 449 l 2
 157 481 188 507 222 507 c 3
 253 507 275 486 275 458 c 3
EndSplineSet
Refer: 133 46 N 1 0 0 1 124 610 2
Substitution2: "Single Substitution lookup 4 subtable" uni0237
Substitution2: "Single Substitution lookup 3 subtable" uni0237
EndChar

StartChar: k
Encoding: 107 107 75
Width: 571
GlyphClass: 2
Flags: W
HStem: -7 21G<115 146.5 473 494.5> 491 20G<533 555.5> 709 20G<229.5 261>
LayerCount: 2
Fore
SplineSet
496 494 m 2
 509 504 526 511 540 511 c 3
 571 511 590 489 590 463 c 3
 590 439 576 420 564 411 c 2
 377 269 l 1
 537 91 l 2
 544 83 549 71 549 59 c 3
 549 13 508 -7 481 -7 c 3
 465 -7 451 1 442 11 c 2
 268 201 l 1
 216 161 l 1
 199 54 l 2
 194 20 163 -7 130 -7 c 7
 100 -7 80 14 80 42 c 7
 80 45 80 48 81 51 c 2
 179 668 l 2
 184 702 213 729 246 729 c 3
 276 729 297 707 297 678 c 3
 297 675 297 671 296 668 c 2
 237 297 l 1
 496 494 l 2
EndSplineSet
EndChar

StartChar: l
Encoding: 108 108 76
Width: 340
GlyphClass: 2
Flags: W
HStem: -9 122<231.711 326.339> 709 20G<231.5 263>
VStem: 105 119<118.216 337.391>
LayerCount: 2
Fore
SplineSet
347 62 m 7
 347 15 305 -9 277 -9 c 7
 145 -9 105 46 105 151 c 7
 105 193 112 244 121 302 c 2
 179 668 l 2
 184 702 215 729 248 729 c 3
 278 729 300 707 300 678 c 3
 300 675 300 671 299 668 c 2
 240 298 l 2
 230 235 224 193 224 166 c 7
 224 115 245 113 296 113 c 7
 326 113 347 91 347 62 c 7
EndSplineSet
Substitution2: "'ss02' Estilo 2 lookup 36 subtable" l.ss02
Substitution2: "'aalt' Activar todas las variantes lookup 0 subtable" l.ss02
EndChar

StartChar: m
Encoding: 109 109 77
Width: 910
GlyphClass: 2
Flags: W
HStem: -9 21G<115.5 146 438.5 471 763.5 794> 387 122<323.19 434.801 633.925 764.057>
VStem: 728 117<8.54177 91.2729> 770 116<169.445 381.019>
LayerCount: 2
Fore
SplineSet
557 441 m 1xd0
 605 481 666 509 744 509 c 3
 851 509 886 445 886 349 c 3xd0
 886 319 882 285 876 249 c 2
 845 48 l 2
 840 16 810 -9 778 -9 c 3
 749 -9 728 11 728 38 c 3
 728 41 728 44 728 47 c 2xe0
 762 257 l 2
 767 288 770 313 770 333 c 3
 770 369 758 387 724 387 c 3
 626 387 569 327 556 247 c 2
 524 47 l 2
 519 17 488 -9 454 -9 c 3
 423 -9 400 12 400 39 c 3
 400 42 400 44 400 47 c 2
 435 267 l 2
 438 288 442 309 442 329 c 3
 442 361 432 387 396 387 c 3
 306 387 241 324 228 245 c 2
 196 47 l 2
 191 16 162 -9 130 -9 c 3
 101 -9 80 11 80 39 c 3
 80 42 81 45 81 48 c 2
 144 450 l 2
 149 482 179 507 211 507 c 3
 240 507 260 485 260 456 c 3
 260 453 261 449 260 446 c 1
 303 483 360 509 416 509 c 3
 471 509 530 495 557 441 c 1xd0
EndSplineSet
EndChar

StartChar: n
Encoding: 110 110 78
Width: 609
GlyphClass: 2
Flags: W
HStem: -7 21G<112 141.5 467 496.5> 389 122<322.956 460.893>
VStem: 474 112<161.828 378.985>
LayerCount: 2
Fore
SplineSet
467 252 m 2
 471 275 474 298 474 319 c 3
 474 358 462 389 414 389 c 3
 321 389 233 320 221 247 c 2
 190 49 l 2
 185 18 157 -7 126 -7 c 7
 98 -7 78 14 78 41 c 7
 78 44 78 47 79 50 c 2
 143 452 l 2
 148 484 177 509 208 509 c 3
 235 509 254 488 255 460 c 1
 305 491 364 511 433 511 c 3
 550 511 586 441 586 344 c 3
 586 315 583 284 578 252 c 2
 546 50 l 2
 541 18 512 -7 481 -7 c 3
 453 -7 434 13 434 40 c 3
 434 43 435 46 435 49 c 2
 467 252 l 2
EndSplineSet
EndChar

StartChar: ntilde
Encoding: 241 241 79
Width: 609
GlyphClass: 2
Flags: W
HStem: -7 21G<112 141.5 467 496.5> 389 122<322.956 460.893> 575 102<409.612 492.702> 647 102<253.298 336.388>
VStem: 160 85<575.95 642.202> 474 112<161.828 378.985> 501 85<681.798 748.05>
LayerCount: 2
Fore
SplineSet
542 755 m 7xea
 566 755 586 732 586 704 c 7
 586 655 539 575 461 575 c 7xea
 410 575 381 599 347 619 c 4
 313 639 297 647 285 647 c 7
 264 647 253 633 245 604 c 4
 239 583 222 569 204 569 c 7
 180 569 160 592 160 620 c 7
 160 669 207 749 285 749 c 7xda
 336 749 365 725 399 705 c 4
 433 685 449 677 461 677 c 7
 482 677 493 691 501 720 c 4
 507 741 524 755 542 755 c 7xea
EndSplineSet
Refer: 78 110 N 1 0 0 1 0 0 2
EndChar

StartChar: o
Encoding: 111 111 80
Width: 603
GlyphClass: 2
Flags: W
HStem: -9 122<244.83 400.614> 387 122<282.816 438.643>
VStem: 79 115<163.053 301.694> 489 115<198.306 336.947>
LayerCount: 2
Fore
SplineSet
384 509 m 7
 521 509 604 413 604 292 c 7
 604 112 445 -9 300 -9 c 7
 163 -9 79 87 79 208 c 7
 79 388 239 509 384 509 c 7
319 113 m 7
 411 113 489 191 489 272 c 7
 489 339 433 387 364 387 c 7
 272 387 194 309 194 228 c 7
 194 161 250 113 319 113 c 7
EndSplineSet
Substitution2: "Single Substitution lookup 29 subtable" ordmasculine
Substitution2: "'aalt' Activar todas las variantes lookup 0 subtable" ordmasculine
EndChar

StartChar: otilde
Encoding: 245 245 85
Width: 603
GlyphClass: 2
Flags: W
HStem: -9 122<244.83 400.614> 387 122<282.816 438.643> 575 102<447.612 530.676> 647 102<291.324 374.388>
VStem: 79 115<163.053 301.694> 199 84<575.462 642.202> 489 115<198.306 336.947> 539 84<681.798 748.538>
LayerCount: 2
Fore
SplineSet
580 755 m 7xed
 604 755 623 732 623 704 c 7
 623 655 577 575 499 575 c 7xed
 448 575 419 599 385 619 c 4
 351 639 335 647 323 647 c 7
 302 647 291 633 283 604 c 4
 277 583 260 569 242 569 c 7
 218 569 199 592 199 620 c 7
 199 669 245 749 323 749 c 7xdd
 374 749 403 725 437 705 c 4
 471 685 487 677 499 677 c 7
 520 677 531 691 539 720 c 4
 545 741 562 755 580 755 c 7xed
EndSplineSet
Refer: 80 111 N 1 0 0 1 0 0 2
EndChar

StartChar: p
Encoding: 112 112 86
Width: 624
GlyphClass: 2
Flags: W
HStem: -9 122<270.912 422.55> 387 122<305.27 460.371>
VStem: 509 114<197.68 338.63>
LayerCount: 2
Fore
SplineSet
164 -130 m 2
 159 -164 130 -191 99 -191 c 7
 71 -191 52 -170 52 -141 c 7
 52 -138 51 -134 52 -130 c 2
 144 451 l 2
 149 483 179 509 210 509 c 3
 236 509 254 490 256 465 c 1
 301 492 354 509 407 509 c 3
 540 509 623 413 623 293 c 3
 623 115 475 -9 325 -9 c 3
 273 -9 226 7 190 33 c 1
 164 -130 l 2
223 228 m 3
 223 160 275 113 344 113 c 3
 437 113 509 192 509 272 c 3
 509 340 456 387 387 387 c 3
 297 387 223 312 223 228 c 3
EndSplineSet
EndChar

StartChar: q
Encoding: 113 113 87
Width: 624
GlyphClass: 2
Flags: W
HStem: -9 122<241.309 394.296> 387 122<276.553 431.308>
VStem: 79 114<160.892 303.126> 479 143<232 474>
LayerCount: 2
Fore
SplineSet
529 -130 m 2
 524 -164 495 -191 464 -191 c 3
 436 -191 417 -170 417 -141 c 3
 417 -138 416 -134 417 -130 c 2
 443 33 l 1
 399 7 347 -9 295 -9 c 3
 162 -9 79 86 79 206 c 3
 79 386 235 509 377 509 c 3
 430 509 478 492 515 465 c 1
 525 490 549 509 575 509 c 7
 603 509 622 488 622 460 c 7
 622 457 622 454 621 451 c 2
 529 -130 l 2
193 228 m 3
 193 160 245 113 314 113 c 3
 407 113 479 192 479 272 c 3
 479 340 426 387 357 387 c 3
 268 387 193 312 193 228 c 3
EndSplineSet
EndChar

StartChar: r
Encoding: 114 114 88
Width: 421
GlyphClass: 2
Flags: W
HStem: -7 21G<114.5 145> 389 122<333.355 469.442>
VStem: 80 115<10.3355 94.3313>
LayerCount: 2
Fore
SplineSet
442 511 m 3
 471 511 490 490 490 461 c 3
 490 416 451 389 423 389 c 3
 328 389 237 319 223 230 c 2
 195 49 l 2
 190 18 161 -7 129 -7 c 3
 100 -7 80 14 80 41 c 3
 80 44 80 47 81 50 c 2
 145 452 l 2
 150 484 179 509 211 509 c 3
 238 509 256 489 258 462 c 1
 317 493 388 511 442 511 c 3
EndSplineSet
EndChar

StartChar: s
Encoding: 115 115 89
Width: 503
GlyphClass: 2
Flags: W
HStem: -9 118<194.189 365.301> 391 118<236.155 393.846>
VStem: 117 111<322.781 378.577> 377 108<123.815 180.355>
LayerCount: 2
Fore
SplineSet
117 341 m 3
 117 464 236 509 337 509 c 3
 390 509 513 479 513 407 c 3
 513 373 490 336 449 336 c 3
 439 336 430 338 421 346 c 0
 391 374 367 391 317 391 c 3
 280 391 228 382 228 350 c 3
 228 317 275 318 316 307 c 0
 424 276 485 244 485 170 c 3
 485 36 365 -9 250 -9 c 3
 190 -9 60 31 60 108 c 7
 60 156 96 180 125 180 c 7
 139 180 151 173 159 164 c 0
 188 131 212 109 276 109 c 3
 314 109 377 116 377 157 c 3
 377 185 299 200 262 208 c 0
 186 224 117 259 117 341 c 3
EndSplineSet
EndChar

StartChar: t
Encoding: 116 116 90
Width: 413
GlyphClass: 2
Flags: W
HStem: -9 122<286.423 420.875> 377 122<93.8008 168 322 463.199>
VStem: 135 138<123.735 310.562>
LayerCount: 2
Fore
SplineSet
303 377 m 5
 278 219 l 6
 275 199 273 183 273 170 c 7
 273 114 304 113 392 113 c 7
 421 113 441 91 441 62 c 7
 441 25 410 -9 373 -9 c 7
 199 -9 135 28 135 140 c 7
 135 162 138 186 142 214 c 6
 168 377 l 5
 123 377 l 6
 94 377 74 399 74 428 c 7
 74 474 114 499 142 499 c 6
 187 499 l 5
 202 596 l 6
 207 630 240 657 278 657 c 7
 313 657 338 635 338 605 c 7
 338 602 337 599 337 596 c 6
 322 499 l 5
 434 499 l 6
 463 499 483 477 483 448 c 7
 483 402 443 377 415 377 c 6
 303 377 l 5
EndSplineSet
EndChar

StartChar: u
Encoding: 117 117 91
Width: 604
GlyphClass: 2
Flags: W
HStem: -7 120<224.727 375.783> 489 20G<191.5 221 542.5 572>
VStem: 102 112<124.166 340.172> 142 112<407.528 491.458>
LayerCount: 2
Fore
SplineSet
461 255 m 2xe0
 493 453 l 2
 498 484 527 509 558 509 c 3
 586 509 605 488 605 461 c 3
 605 458 606 455 605 452 c 2
 541 50 l 2
 536 18 507 -7 476 -7 c 7
 448 -7 431 14 429 42 c 1
 381 12 325 -9 256 -9 c 3
 140 -9 102 62 102 161 c 3xe0
 102 189 105 219 110 250 c 2
 142 452 l 2
 147 484 176 509 207 509 c 3
 235 509 254 489 254 462 c 3
 254 459 254 456 254 453 c 2xd0
 222 250 l 2
 218 226 214 201 214 180 c 3
 214 141 227 113 275 113 c 3
 401 113 448 170 461 255 c 2xe0
EndSplineSet
EndChar

StartChar: v
Encoding: 118 118 96
Width: 546
GlyphClass: 2
Flags: W
HStem: -7 21G<259.5 284.5> 487 20G<147 171.5 534.5 560>
LayerCount: 2
Fore
SplineSet
97 425 m 2
 95 431 95 438 95 443 c 3
 95 486 134 507 160 507 c 3
 183 507 200 493 206 472 c 2
 299 167 l 1
 490 472 l 2
 503 493 523 507 546 507 c 3
 574 507 594 486 594 459 c 3
 594 447 589 434 583 425 c 2
 333 26 l 2
 321 7 297 -7 272 -7 c 7
 247 -7 227 7 221 26 c 2
 97 425 l 2
EndSplineSet
EndChar

StartChar: w
Encoding: 119 119 97
Width: 881
GlyphClass: 2
Flags: W
HStem: -7 21G<251.5 276 603 627.5> 487 20G<160.5 185.5 855.5 882>
LayerCount: 2
Fore
SplineSet
676 28 m 2
 664 8 640 -7 615 -7 c 7
 591 -7 573 6 566 25 c 2
 481 255 l 1
 322 25 l 2
 309 7 288 -7 264 -7 c 7
 239 -7 218 8 213 28 c 2
 108 429 l 2
 107 433 106 438 106 444 c 3
 106 485 148 507 173 507 c 3
 198 507 215 490 220 469 c 2
 298 164 l 1
 448 382 l 2
 461 401 483 414 507 414 c 3
 531 414 548 401 555 382 c 2
 635 164 l 1
 809 469 l 2
 821 490 843 507 868 507 c 3
 896 507 918 487 918 459 c 3
 918 445 914 437 909 428 c 2
 676 28 l 2
EndSplineSet
EndChar

StartChar: x
Encoding: 120 120 98
Width: 572
GlyphClass: 2
Flags: W
HStem: -6 21G<85.5 109.5 460.5 482> 505 20G<172 193.5 544.5 568.5>
LayerCount: 2
Fore
SplineSet
185 525 m 7
 202 525 216 516 225 503 c 2
 340 339 l 1
 507 503 l 2
 520 516 536 525 553 525 c 3
 584 525 602 503 602 477 c 3
 602 458 592 441 582 431 c 2
 409 260 l 1
 528 88 l 2
 533 81 536 72 536 61 c 3
 536 14 495 -6 469 -6 c 3
 452 -6 439 3 430 16 c 2
 315 180 l 1
 148 16 l 2
 135 3 118 -6 101 -6 c 3
 70 -6 52 16 52 42 c 3
 52 61 62 78 72 88 c 2
 245 260 l 1
 126 431 l 2
 121 438 118 447 118 458 c 7
 118 506 159 525 185 525 c 7
EndSplineSet
EndChar

StartChar: y
Encoding: 121 121 99
Width: 545
GlyphClass: 2
Flags: W
HStem: 487 20G<144 168 537 561>
LayerCount: 2
Fore
SplineSet
303 191 m 1
 495 477 l 2
 508 496 527 507 547 507 c 3
 575 507 593 483 593 457 c 3
 593 441 587 427 580 417 c 2
 193 -160 l 2
 180 -180 159 -190 140 -190 c 7
 112 -190 95 -167 95 -140 c 7
 95 -124 100 -110 107 -100 c 2
 221 69 l 1
 97 417 l 2
 95 423 94 430 94 436 c 3
 94 485 130 507 158 507 c 3
 178 507 195 496 202 477 c 2
 303 191 l 1
EndSplineSet
EndChar

StartChar: z
Encoding: 122 122 100
Width: 491
GlyphClass: 2
Flags: W
HStem: 0 122<238 464.208> 378 122<140.896 349>
LayerCount: 2
Fore
SplineSet
186 500 m 2
 489 500 l 2
 516 500 535 480 535 453 c 3
 535 435 527 419 518 410 c 2
 238 122 l 1
 436 122 l 2
 463 122 482 101 482 72 c 7
 482 23 445 0 417 0 c 2
 100 0 l 2
 73 0 54 20 54 47 c 3
 54 66 62 81 71 90 c 2
 349 378 l 1
 167 378 l 2
 140 378 122 399 122 428 c 3
 122 474 159 500 186 500 c 2
EndSplineSet
EndChar

StartChar: zero
Encoding: 48 48 103
Width: 614
Flags: W
HStem: -11 124<260.175 396.055> 607 124<331.945 467.825>
VStem: 87 117<176.173 428.912> 524 117<291.088 543.827>
LayerCount: 2
Fore
SplineSet
423 731 m 7
 586 731 641 599 641 457 c 7
 641 261 540 -11 305 -11 c 7
 142 -11 87 121 87 263 c 7
 87 459 188 731 423 731 c 7
403 607 m 7
 275 607 204 425 204 287 c 7
 204 200 232 113 325 113 c 7
 453 113 524 295 524 433 c 7
 524 520 496 607 403 607 c 7
EndSplineSet
Substitution2: "'onum' Cifras estilo antiguo lookup 31 subtable" zero.tosf
Substitution2: "'frac' Fracciones lookup 24 subtable" zero.numr
Substitution2: "'dnom' Denominadores lookup 22 subtable" zero.dnom
Substitution2: "'numr' Numeradores lookup 21 subtable" zero.numr
Substitution2: "'sups' Supra+AO0A-ndice lookup 20 subtable" uni2070
Substitution2: "'sinf' +AM0A-ndices cient+AO0A-ficos lookup 19 subtable" uni2080
Substitution2: "'subs' Sub+AO0A-ndice lookup 18 subtable" uni2080
AlternateSubs2: "'aalt' Activar todas las variantes lookup 1 subtable" zero.tosf uni2080 zero.dnom zero.numr uni2070
EndChar

StartChar: one
Encoding: 49 49 104
Width: 614
Flags: W
HStem: 0 124<148.068 276 409 512.932> 505 21G<214 241.5> 709 20G<432 456>
LayerCount: 2
Fore
SplineSet
229 505 m 3
 199 505 179 526 179 554 c 3
 179 580 197 603 214 613 c 2
 402 720 l 2
 412 726 425 729 439 729 c 3
 473 729 496 708 496 679 c 3
 496 676 495 673 495 670 c 2
 409 124 l 1
 485 124 l 2
 514 124 533 102 533 73 c 7
 533 25 493 0 465 0 c 2
 176 0 l 2
 147 0 128 22 128 51 c 3
 128 98 168 124 196 124 c 2
 276 124 l 1
 345 562 l 1
 300 538 254 505 229 505 c 3
EndSplineSet
Substitution2: "'ss01' Estilo 1 lookup 35 subtable" one.ss01
Substitution2: "'salt' Alternativas estil+AO0A-sticas lookup 34 subtable" one.ss01
Substitution2: "'onum' Cifras estilo antiguo lookup 31 subtable" one.tosf
Substitution2: "'frac' Fracciones lookup 24 subtable" one.numr
Substitution2: "'dnom' Denominadores lookup 22 subtable" one.dnom
Substitution2: "'numr' Numeradores lookup 21 subtable" one.numr
Substitution2: "'sups' Supra+AO0A-ndice lookup 20 subtable" uni00B9
Substitution2: "'sinf' +AM0A-ndices cient+AO0A-ficos lookup 19 subtable" uni2081
Substitution2: "'subs' Sub+AO0A-ndice lookup 18 subtable" uni2081
AlternateSubs2: "'aalt' Activar todas las variantes lookup 1 subtable" one.ss01 one.tosf uni2081 one.dnom one.numr uni00B9
EndChar

StartChar: two
Encoding: 50 50 105
Width: 614
Flags: W
HStem: 0 124<193 558.932> 609 124<313.697 483.552>
VStem: 516 121<485.148 579.422>
LayerCount: 2
Fore
SplineSet
379 278 m 0
 309 235 235 194 193 124 c 1
 193 124 418 124 531 124 c 7
 560 124 579 102 579 73 c 7
 579 26 539 0 511 0 c 2
 103 0 l 2
 74 0 55 21 55 49 c 3
 55 137 128 257 319 368 c 0
 372 399 516 464 516 528 c 3
 516 581 466 609 403 609 c 3
 346 609 277 577 238 529 c 0
 227 515 209 495 181 495 c 3
 147 495 133 522 133 547 c 3
 133 654 328 733 423 733 c 3
 558 733 637 652 637 551 c 3
 637 402 474 337 379 278 c 0
EndSplineSet
Substitution2: "'onum' Cifras estilo antiguo lookup 31 subtable" two.tosf
Substitution2: "'frac' Fracciones lookup 24 subtable" two.numr
Substitution2: "'dnom' Denominadores lookup 22 subtable" two.dnom
Substitution2: "'numr' Numeradores lookup 21 subtable" two.numr
Substitution2: "'sups' Supra+AO0A-ndice lookup 20 subtable" uni00B2
Substitution2: "'sinf' +AM0A-ndices cient+AO0A-ficos lookup 19 subtable" uni2082
Substitution2: "'subs' Sub+AO0A-ndice lookup 18 subtable" uni2082
AlternateSubs2: "'aalt' Activar todas las variantes lookup 1 subtable" two.tosf uni2082 two.dnom two.numr uni00B2
EndChar

StartChar: three
Encoding: 51 51 106
Width: 614
Flags: W
HStem: -9 124<213.45 431.485> 308 124<239.74 444.642> 607 124<293.092 494.181>
VStem: 486 116<161.454 274.125> 516 121<478.107 584.777>
LayerCount: 2
Fore
SplineSet
293 432 m 3xf0
 335 432 371 437 402 437 c 3
 467 437 516 482 516 538 c 3
 516 605 437 607 387 607 c 3
 276 607 255 539 203 539 c 3
 174 539 154 560 154 590 c 3
 154 681 319 731 403 731 c 3
 545 731 637 688 637 568 c 3xe8
 637 473 591 414 539 374 c 1
 577 343 602 293 602 235 c 3
 602 43 421 -9 286 -9 c 3
 207 -9 66 36 66 127 c 7
 66 177 104 204 135 204 c 7
 182 204 174 161 210 139 c 0
 232 126 266 115 305 115 c 3
 407 115 486 140 486 222 c 3
 486 252 472 273 446 286 c 0
 413 302 349 308 274 308 c 3
 242 308 220 329 220 364 c 3
 220 404 257 432 293 432 c 3xf0
EndSplineSet
Substitution2: "'onum' Cifras estilo antiguo lookup 31 subtable" three.tosf
Substitution2: "'frac' Fracciones lookup 24 subtable" three.numr
Substitution2: "'dnom' Denominadores lookup 22 subtable" three.dnom
Substitution2: "'numr' Numeradores lookup 21 subtable" three.numr
Substitution2: "'sups' Supra+AO0A-ndice lookup 20 subtable" uni00B3
Substitution2: "'sinf' +AM0A-ndices cient+AO0A-ficos lookup 19 subtable" uni2083
Substitution2: "'subs' Sub+AO0A-ndice lookup 18 subtable" uni2083
AlternateSubs2: "'aalt' Activar todas las variantes lookup 1 subtable" three.tosf uni2083 three.dnom three.numr uni00B3
EndChar

StartChar: four
Encoding: 52 52 107
Width: 614
Flags: W
HStem: -7 21G<417 450.5> 187 124<256 401 545 613.199> 709 20G<539 565>
LayerCount: 2
Fore
SplineSet
401 187 m 1
 401 187 206 187 109 187 c 3
 79 187 59 208 59 237 c 3
 59 256 68 274 78 285 c 2
 497 707 l 2
 511 721 529 729 549 729 c 3
 581 729 603 707 603 678 c 3
 603 675 603 672 602 669 c 2
 545 311 l 1
 545 311 571 311 584 311 c 3
 613 311 633 289 633 260 c 3
 633 212 593 187 565 187 c 2
 526 187 l 1
 504 50 l 2
 499 18 468 -7 433 -7 c 7
 401 -7 378 14 378 42 c 7
 378 45 379 47 379 50 c 2
 401 187 l 1
256 311 m 1
 420 311 l 1
 451 508 l 1
 256 311 l 1
EndSplineSet
Substitution2: "'onum' Cifras estilo antiguo lookup 31 subtable" four.tosf
Substitution2: "'frac' Fracciones lookup 24 subtable" four.numr
Substitution2: "'dnom' Denominadores lookup 22 subtable" four.dnom
Substitution2: "'numr' Numeradores lookup 21 subtable" four.numr
Substitution2: "'sups' Supra+AO0A-ndice lookup 20 subtable" uni2074
Substitution2: "'sinf' +AM0A-ndices cient+AO0A-ficos lookup 19 subtable" uni2084
Substitution2: "'subs' Sub+AO0A-ndice lookup 18 subtable" uni2084
AlternateSubs2: "'aalt' Activar todas las variantes lookup 1 subtable" four.tosf uni2084 four.dnom four.numr uni2074
EndChar

StartChar: five
Encoding: 53 53 108
Width: 614
Flags: W
HStem: -9 124<185.841 382.198> 375 124<253.239 446.574> 598 124<293 596.232>
VStem: 494 117<207.416 333.049>
LayerCount: 2
Fore
SplineSet
244 -9 m 3
 190 -9 64 19 64 93 c 7
 64 143 103 166 131 166 c 7
 147 166 160 159 169 150 c 0
 192 128 229 115 263 115 c 3
 388 115 494 181 494 278 c 3
 494 341 426 375 361 375 c 3
 267 375 199 329 157 329 c 3
 129 329 108 350 108 380 c 3
 108 383 108 387 109 390 c 2
 192 672 l 2
 201 702 228 722 257 722 c 2
 570 722 l 2
 599 722 618 700 618 671 c 3
 618 628 579 598 551 598 c 2
 293 598 l 1
 252 481 l 1
 293 491 337 499 381 499 c 3
 514 499 611 421 611 301 c 3
 611 80 400 -9 244 -9 c 3
EndSplineSet
Substitution2: "'onum' Cifras estilo antiguo lookup 31 subtable" five.tosf
Substitution2: "'frac' Fracciones lookup 24 subtable" five.numr
Substitution2: "'dnom' Denominadores lookup 22 subtable" five.dnom
Substitution2: "'numr' Numeradores lookup 21 subtable" five.numr
Substitution2: "'sups' Supra+AO0A-ndice lookup 20 subtable" uni2075
Substitution2: "'sinf' +AM0A-ndices cient+AO0A-ficos lookup 19 subtable" uni2085
Substitution2: "'subs' Sub+AO0A-ndice lookup 18 subtable" uni2085
AlternateSubs2: "'aalt' Activar todas las variantes lookup 1 subtable" five.tosf uni2085 five.dnom five.numr uni2075
EndChar

StartChar: six
Encoding: 54 54 109
Width: 614
Flags: W
HStem: -9 124<248.15 419.762> 356 124<293.316 454.404>
VStem: 79 125<157.362 282.388> 496 116<186.588 318.029>
LayerCount: 2
Fore
SplineSet
266 444 m 1
 302 466 344 480 387 480 c 7
 526 480 612 391 612 274 c 3
 612 94 447 -9 306 -9 c 3
 162 -9 79 94 79 212 c 3
 79 225 80 239 82 253 c 0
 132 567 318 683 518 731 c 0
 523 732 527 732 533 732 c 3
 568 732 587 710 587 683 c 3
 587 644 554 622 531 617 c 0
 406 588 321 529 266 444 c 1
496 258 m 3
 496 332 429 356 369 356 c 3
 287 356 204 293 204 217 c 3
 204 153 262 115 325 115 c 3
 425 115 496 175 496 258 c 3
EndSplineSet
Substitution2: "'onum' Cifras estilo antiguo lookup 31 subtable" six.tosf
Substitution2: "'frac' Fracciones lookup 24 subtable" six.numr
Substitution2: "'dnom' Denominadores lookup 22 subtable" six.dnom
Substitution2: "'numr' Numeradores lookup 21 subtable" six.numr
Substitution2: "'sups' Supra+AO0A-ndice lookup 20 subtable" uni2076
Substitution2: "'sinf' +AM0A-ndices cient+AO0A-ficos lookup 19 subtable" uni2086
Substitution2: "'subs' Sub+AO0A-ndice lookup 18 subtable" uni2086
AlternateSubs2: "'aalt' Activar todas las variantes lookup 1 subtable" six.tosf uni2086 six.dnom six.numr uni2076
EndChar

StartChar: seven
Encoding: 55 55 110
Width: 614
Flags: W
HStem: -7 21G<129 154> 598 124<170.068 502>
LayerCount: 2
Fore
SplineSet
625 722 m 2
 655 722 674 700 674 673 c 3
 674 658 668 642 661 633 c 2
 203 23 l 2
 188 3 164 -7 144 -7 c 7
 114 -7 94 14 94 42 c 7
 94 59 101 70 109 80 c 2
 502 598 l 1
 198 598 l 2
 169 598 150 620 150 649 c 3
 150 696 189 722 217 722 c 2
 625 722 l 2
EndSplineSet
Substitution2: "'onum' Cifras estilo antiguo lookup 31 subtable" seven.tosf
Substitution2: "'frac' Fracciones lookup 24 subtable" seven.numr
Substitution2: "'dnom' Denominadores lookup 22 subtable" seven.dnom
Substitution2: "'numr' Numeradores lookup 21 subtable" seven.numr
Substitution2: "'sups' Supra+AO0A-ndice lookup 20 subtable" uni2077
Substitution2: "'sinf' +AM0A-ndices cient+AO0A-ficos lookup 19 subtable" uni2087
Substitution2: "'subs' Sub+AO0A-ndice lookup 18 subtable" uni2087
AlternateSubs2: "'aalt' Activar todas las variantes lookup 1 subtable" seven.tosf uni2087 seven.dnom seven.numr uni2077
EndChar

StartChar: eight
Encoding: 56 56 111
Width: 614
Flags: W
HStem: -9 124<235.168 421.597> 302 127<295.432 445.413> 606 124<318.975 482.504>
VStem: 76 117<152.353 250.952> 149 120<454.383 560.701> 487 117<168.309 265.287> 510 120<473.254 579.973>
LayerCount: 2
Fore
SplineSet
630 555 m 3xea
 630 472 590 410 545 370 c 1
 580 339 604 295 604 240 c 7
 604 77 435 -9 306 -9 c 7
 188 -9 76 57 76 176 c 7xf4
 76 269 134 332 187 370 c 1
 163 398 149 436 149 481 c 3
 149 628 269 730 423 730 c 3
 542 730 630 667 630 555 c 3xea
269 503 m 3xea
 269 455 312 429 375 429 c 3
 451 429 510 468 510 530 c 3
 510 575 471 606 403 606 c 3
 326 606 269 565 269 503 c 3xea
193 198 m 7xf4
 193 138 273 115 325 115 c 7
 396 115 487 151 487 220 c 7
 487 280 400 302 355 302 c 7
 290 302 193 268 193 198 c 7xf4
EndSplineSet
Substitution2: "'onum' Cifras estilo antiguo lookup 31 subtable" eight.tosf
Substitution2: "'frac' Fracciones lookup 24 subtable" eight.numr
Substitution2: "'dnom' Denominadores lookup 22 subtable" eight.dnom
Substitution2: "'numr' Numeradores lookup 21 subtable" eight.numr
Substitution2: "'sups' Supra+AO0A-ndice lookup 20 subtable" uni2078
Substitution2: "'sinf' +AM0A-ndices cient+AO0A-ficos lookup 19 subtable" uni2088
Substitution2: "'subs' Sub+AO0A-ndice lookup 18 subtable" uni2088
AlternateSubs2: "'aalt' Activar todas las variantes lookup 1 subtable" eight.tosf uni2088 eight.dnom eight.numr uni2078
EndChar

StartChar: period
Encoding: 46 46 133
Width: 242
Flags: W
HStem: -20 162<74.5359 186.988>
VStem: 49 163<6.43228 115.568>
LayerCount: 2
Fore
SplineSet
212 61 m 7
 212 16 176 -20 131 -20 c 7
 86 -20 49 16 49 61 c 7
 49 106 86 142 131 142 c 7
 176 142 212 106 212 61 c 7
EndSplineSet
EndChar

StartChar: comma
Encoding: 44 44 134
Width: 242
Flags: W
HStem: -136 278<117.579 157.2>
VStem: 48 163<6.52457 115.021>
LayerCount: 2
Fore
SplineSet
130 142 m 3
 175 142 211 105 211 53 c 3
 211 4 185 -136 115 -136 c 7
 87 -136 69 -113 69 -89 c 7
 69 -53 106 -42 117 -17 c 1
 77 -17 48 23 48 60 c 3
 48 105 85 142 130 142 c 3
EndSplineSet
EndChar

StartChar: exclam
Encoding: 33 33 137
Width: 242
Flags: W
HStem: -20 162<73.1496 187.327>
VStem: 48 165<6.43228 115.568> 106 102<191.076 326.568> 152 151<564.598 714.893>
LayerCount: 2
Fore
SplineSet
303 681 m 0x90
 303 677 303 673 302 668 c 0
 293 612 215 262 208 230 c 0
 201 198 181 179 149 179 c 0
 120 179 106 195 106 222 c 0
 106 225 106 227 106 230 c 0xa0
 109 262 143 612 152 668 c 0
 158 709 193 745 239 745 c 0
 280 745 303 716 303 681 c 0x90
48 61 m 0xc0
 48 106 84 142 130 142 c 0
 176 142 213 106 213 61 c 0
 213 16 176 -20 130 -20 c 0
 84 -20 48 16 48 61 c 0xc0
EndSplineSet
EndChar

StartChar: question
Encoding: 63 63 139
Width: 479
Flags: W
HStem: -20 134<168.509 269.491> 623 124<245.414 403.767>
VStem: 151 136<-2.59354 96.5935> 431 126<465.422 594.852>
LayerCount: 2
Fore
SplineSet
151 47 m 7
 151 84 181 114 219 114 c 7
 257 114 287 84 287 47 c 7
 287 10 257 -20 219 -20 c 7
 181 -20 151 10 151 47 c 7
185 215 m 3
 185 218 185 221 186 225 c 0
 192 260 196 294 202 329 c 0
 208 364 239 391 274 391 c 3
 354 391 431 459 431 533 c 3
 431 582 398 623 351 623 c 3
 265 623 244 606 204 570 c 0
 191 558 173 550 155 550 c 3
 122 550 102 573 102 602 c 3
 102 605 102 609 103 612 c 0
 113 672 228 747 370 747 c 3
 493 747 557 651 557 552 c 3
 557 385 419 300 318 274 c 1
 310 225 l 2
 304 190 272 163 238 163 c 3
 207 163 185 185 185 215 c 3
EndSplineSet
EndChar

StartChar: asterisk
Encoding: 42 42 142
Width: 462
Flags: W
HStem: 406 278<149 237.938 397.062 486>
VStem: 255 125<343.863 437 652 745.137>
LayerCount: 2
Fore
SplineSet
380 391 m 2
 380 356 351 329 317 329 c 3
 282 329 255 356 255 391 c 2
 255 437 l 1
 216 414 l 2
 206 408 195 406 184 406 c 3
 149 406 122 432 122 467 c 3
 122 489 135 510 154 521 c 2
 194 545 l 1
 154 568 l 2
 135 579 122 600 122 622 c 3
 122 656 148 684 184 684 c 3
 197 684 208 679 216 674 c 2
 255 652 l 1
 255 698 l 2
 255 733 282 760 317 760 c 3
 351 760 380 733 380 698 c 2
 380 652 l 1
 419 674 l 2
 427 679 438 684 451 684 c 3
 487 684 513 656 513 622 c 3
 513 600 500 579 481 568 c 2
 441 545 l 1
 481 521 l 2
 500 510 513 489 513 467 c 3
 513 432 486 406 451 406 c 3
 440 406 429 408 419 414 c 2
 380 437 l 1
 380 391 l 2
EndSplineSet
EndChar

StartChar: numbersign
Encoding: 35 35 143
Width: 614
Flags: W
HStem: 170 125<78.9271 169 313 374 518 608.957> 430 125<119.52 210 354 415 559 649.625>
LayerCount: 2
Fore
SplineSet
375 694 m 0
 375 690 375 687 374 683 c 2
 354 555 l 1
 435 555 l 1
 455 683 l 2
 460 718 492 745 527 745 c 3
 558 745 580 724 580 694 c 0
 580 690 580 687 579 683 c 2
 559 555 l 1
 618 555 l 2
 649 555 672 533 672 503 c 3
 672 464 637 430 598 430 c 2
 539 430 l 1
 518 295 l 1
 577 295 l 2
 608 295 631 273 631 243 c 3
 631 194 586 170 557 170 c 2
 498 170 l 1
 477 39 l 2
 471 4 440 -23 405 -23 c 7
 374 -23 352 -2 352 28 c 0
 352 32 352 35 353 39 c 2
 374 170 l 1
 293 170 l 1
 272 39 l 2
 266 4 235 -23 200 -23 c 7
 169 -23 147 -2 147 28 c 0
 147 32 147 35 148 39 c 2
 169 170 l 1
 109 170 l 2
 78 170 56 191 56 221 c 3
 56 269 100 295 129 295 c 2
 189 295 l 1
 210 430 l 1
 150 430 l 2
 118 430 98 453 98 483 c 3
 98 531 142 555 170 555 c 2
 230 555 l 1
 250 683 l 2
 255 718 287 745 322 745 c 3
 353 745 375 724 375 694 c 0
415 430 m 1
 334 430 l 1
 313 295 l 1
 394 295 l 1
 415 430 l 1
EndSplineSet
EndChar

StartChar: slash
Encoding: 47 47 144
Width: 304
Flags: W
LayerCount: 2
Fore
SplineSet
-31 -21 m 4
 -31 -12 -29 -3 -25 5 c 6
 332 751 l 6
 342 771 362 785 386 785 c 4
 419 785 446 758 446 725 c 4
 446 716 445 707 441 699 c 6
 84 -47 l 6
 74 -67 53 -81 29 -81 c 4
 -4 -81 -31 -54 -31 -21 c 4
EndSplineSet
Substitution2: "'frac' Fracciones lookup 23 subtable" fraction
Substitution2: "'aalt' Activar todas las variantes lookup 0 subtable" fraction
EndChar

StartChar: backslash
Encoding: 92 92 145
Width: 338
Flags: W
VStem: 105 240
LayerCount: 2
Fore
SplineSet
169 784 m 4
 202 784 229 760 234 729 c 6
 345 -3 l 6
 346 -7 345 -11 345 -14 c 0
 345 -51 315 -78 280 -78 c 4
 247 -78 221 -54 216 -23 c 6
 105 709 l 6
 104 713 104 717 104 720 c 0
 104 757 134 784 169 784 c 4
EndSplineSet
EndChar

StartChar: parenleft
Encoding: 40 40 146
Width: 371
Flags: W
VStem: 58 126<74.2222 329.922>
LayerCount: 2
Fore
SplineSet
475 684 m 3
 475 681 476 677 475 673 c 0
 472 653 459 633 440 622 c 0
 322 551 184 391 184 201 c 3
 184 89 230 -19 326 -92 c 0
 339 -102 346 -116 346 -133 c 7
 346 -178 310 -205 274 -205 c 7
 262 -205 250 -201 241 -194 c 0
 120 -102 58 37 58 182 c 3
 58 441 238 630 387 724 c 0
 398 731 410 735 422 735 c 3
 455 735 475 713 475 684 c 3
EndSplineSet
EndChar

StartChar: braceleft
Encoding: 123 123 148
Width: 395
Flags: W
HStem: -200 121<277.605 351.449> 208 122<86.3131 160.962> 617 121<385.328 479.863>
VStem: 143 123<-68.6725 166.142> 163 124<-8.16551 206.502>
CounterMasks: 1 e0
LayerCount: 2
Fore
SplineSet
245 269 m 1xe8
 278 240 287 211 287 172 c 3xe8
 287 111 266 54 266 -7 c 3
 266 -61 289 -79 326 -79 c 3
 355 -79 372 -106 372 -130 c 3
 372 -173 333 -200 296 -200 c 3
 191 -200 143 -113 143 -15 c 3xf0
 143 45 163 105 163 166 c 3
 163 208 150 208 118 208 c 3
 87 208 67 230 67 259 c 3
 67 304 105 330 137 330 c 3
 172 330 181 335 191 360 c 0
 201 384 210 430 222 504 c 0
 240 620 322 738 445 738 c 7
 478 738 501 719 501 688 c 7
 501 654 469 617 437 617 c 7
 354 617 346 520 338 466 c 0
 325 386 319 315 245 269 c 1xe8
EndSplineSet
EndChar

StartChar: bracketleft
Encoding: 91 91 150
Width: 355
Flags: W
HStem: -200 122<205 311.176> 616 122<315 441.91>
VStem: 72 262<-177.411 -88>
LayerCount: 2
Fore
SplineSet
205 -78 m 1
 282 -78 l 2
 313 -78 334 -100 334 -129 c 3
 334 -173 290 -200 262 -200 c 2
 124 -200 l 2
 93 -200 72 -178 72 -149 c 7
 72 -146 72 -142 73 -139 c 2
 202 677 l 2
 207 711 239 738 273 738 c 2
 411 738 l 2
 442 738 463 716 463 687 c 3
 463 641 420 616 392 616 c 2
 315 616 l 1
 205 -78 l 1
EndSplineSet
EndChar

StartChar: hyphen
Encoding: 45 45 152
Width: 614
Flags: W
HStem: 229 124<93.9128 612.087>
LayerCount: 2
Fore
SplineSet
564 353 m 2
 599 353 626 326 626 291 c 7
 626 256 599 229 564 229 c 2
 142 229 l 2
 107 229 80 256 80 291 c 7
 80 326 107 353 142 353 c 2
 564 353 l 2
EndSplineSet
EndChar

StartChar: quotesingle
Encoding: 39 39 156
Width: 236
Flags: W
HStem: 409 336<183.053 234.947>
VStem: 129 160
LayerCount: 2
Fore
SplineSet
288 674 m 2
 248 458 l 2
 243 430 218 409 189 409 c 0
 157 409 129 434 129 468 c 0
 129 472 129 476 130 480 c 2
 170 696 l 2
 175 724 200 745 229 745 c 0
 261 745 289 720 289 686 c 0
 289 682 289 678 288 674 c 2
EndSplineSet
EndChar

StartChar: cent
Encoding: 162 162 159
Width: 614
Flags: W
VStem: 118 124<149.468 307.545>
LayerCount: 2
Fore
SplineSet
484 595 m 3
 484 592 485 588 484 585 c 2
 474 522 l 1
 518 516 600 490 600 436 c 3
 600 388 556 366 529 366 c 3
 498 366 477 397 454 397 c 1
 407 103 l 1
 431 105 465 134 492 134 c 3
 523 134 544 112 544 83 c 3
 544 15 443 -13 388 -22 c 1
 378 -80 l 2
 373 -114 342 -141 308 -141 c 7
 277 -141 256 -119 256 -90 c 7
 256 -87 255 -83 256 -80 c 2
 267 -12 l 1
 176 20 118 104 118 206 c 3
 118 376 247 477 350 512 c 1
 362 585 l 2
 367 619 398 646 432 646 c 3
 463 646 484 624 484 595 c 3
329 377 m 1
 278 334 242 297 242 225 c 3
 242 182 259 146 288 123 c 1
 329 377 l 1
EndSplineSet
EndChar

StartChar: dollar
Encoding: 36 36 160
Width: 678
Flags: W
HStem: 3 120<227.125 271 426 491.555> 640 115<318.02 372 527 562.388>
VStem: 145 129<502.073 598.961> 396 137<755 826.616> 544 127<167.179 263.322>
LayerCount: 2
Fore
SplineSet
396 787 m 2
 401 821 435 847 473 847 c 3
 508 847 533 825 533 795 c 3
 533 783 529 771 527 759 c 1
 591 752 651 728 709 666 c 0
 717 657 723 643 723 630 c 3
 723 584 677 562 650 562 c 3
 635 562 620 566 609 578 c 0
 581 608 542 637 508 639 c 1
 476 437 l 1
 571 411 671 345 671 244 c 3
 671 95 522 16 408 5 c 1
 397 -65 l 2
 392 -99 357 -125 319 -125 c 3
 284 -125 260 -104 260 -74 c 3
 260 -71 261 -68 261 -65 c 2
 271 3 l 1
 204 11 137 35 79 98 c 0
 70 108 65 120 65 133 c 7
 65 182 110 202 138 202 c 7
 154 202 168 195 178 185 c 0
 218 143 253 129 290 123 c 1
 325 341 l 1
 222 367 145 432 145 523 c 3
 145 668 295 746 391 755 c 1
 396 787 l 2
274 546 m 3
 274 507 315 486 346 473 c 1
 372 640 l 1
 338 632 274 607 274 546 c 3
426 118 m 1
 476 121 544 166 544 220 c 3
 544 259 491 293 456 308 c 1
 426 118 l 1
EndSplineSet
EndChar

StartChar: Euro
Encoding: 8364 8364 161
Width: 600
Flags: W
HStem: -25 122<340.138 478.015> 220 122<63.6789 151.849 277 431.339> 380 122<89.0904 155 322 458.166> 625 122<418.088 554.377>
VStem: 150 127<168.817 220 342 380>
LayerCount: 2
Fore
SplineSet
155 380 m 1
 119 380 l 2
 89 380 68 402 68 431 c 3
 68 477 111 501 139 502 c 2
 195 502 l 1
 252 629 369 747 507 747 c 3
 535 747 569 742 606 722 c 0
 651 698 698 655 698 617 c 3
 698 581 666 547 628 547 c 3
 570 547 581 625 488 625 c 3
 421 625 361 569 322 502 c 1
 427 502 l 2
 457 502 478 480 478 451 c 3
 478 401 435 380 407 380 c 2
 275 380 l 1
 271 367 271 354 269 342 c 1
 401 342 l 2
 431 342 452 320 452 291 c 3
 452 244 410 220 382 220 c 2
 277 220 l 1
 295 154 339 97 404 97 c 3
 500 97 508 175 569 175 c 7
 600 175 620 151 620 123 c 7
 620 45 473 -25 385 -25 c 3
 241 -25 168 98 150 220 c 1
 94 220 l 2
 64 220 43 242 43 271 c 3
 43 317 85 342 113 342 c 2
 149 342 l 1
 151 355 153 367 155 380 c 1
EndSplineSet
EndChar

StartChar: sterling
Encoding: 163 163 162
Width: 614
Flags: W
HStem: -16 122<46.6546 160.232 288 582.48> 328 122<114.09 183 329 489.91> 625 122<360.425 502.07>
VStem: 183 123<450 561.642> 208 124<158.328 328>
LayerCount: 2
Fore
SplineSet
639 623 m 3xf0
 639 586 606 553 568 553 c 3
 495 553 546 625 422 625 c 3
 339 625 306 538 306 471 c 3xf0
 306 464 306 457 307 450 c 1
 459 450 l 2
 490 450 511 428 511 399 c 3
 511 352 468 328 440 328 c 2
 329 328 l 1
 331 309 332 290 332 271 c 3
 332 208 316 149 288 106 c 1
 552 106 l 2
 583 106 604 84 604 55 c 7
 604 9 560 -16 532 -16 c 2
 77 -16 l 2
 46 -16 25 6 25 35 c 3
 25 75 64 106 91 106 c 3
 186 106 208 188 208 259 c 3xe8
 208 281 206 304 202 328 c 1
 202 328 164 328 145 328 c 3
 114 328 93 350 93 379 c 3
 93 426 136 450 164 450 c 2
 183 450 l 1
 183 469 183 488 186 506 c 0
 208 643 317 747 441 747 c 3
 586 747 639 670 639 623 c 3xf0
EndSplineSet
EndChar

StartChar: plus
Encoding: 43 43 163
Width: 614
Flags: W
HStem: 229 124<93.9128 291 415 612.087>
VStem: 291 124<31.9128 229 353 550.087>
LayerCount: 2
Fore
SplineSet
353 564 m 7
 388 564 415 537 415 502 c 6
 415 353 l 5
 564 353 l 6
 599 353 626 326 626 291 c 7
 626 256 599 229 564 229 c 6
 415 229 l 5
 415 80 l 6
 415 45 388 18 353 18 c 7
 318 18 291 45 291 80 c 6
 291 229 l 5
 142 229 l 6
 107 229 80 256 80 291 c 7
 80 326 107 353 142 353 c 6
 291 353 l 5
 291 502 l 6
 291 537 318 564 353 564 c 7
EndSplineSet
EndChar

StartChar: multiply
Encoding: 215 215 164
Width: 600
Flags: W
LayerCount: 2
Fore
SplineSet
157 543 m 3
 174 543 188 536 199 525 c 2
 346 380 l 1
 493 525 l 2
 504 536 518 543 535 543 c 3
 570 543 596 514 596 482 c 3
 596 466 589 450 578 439 c 2
 433 293 l 1
 578 147 l 2
 589 136 596 120 596 104 c 3
 596 72 570 43 535 43 c 3
 518 43 504 50 493 61 c 2
 346 206 l 1
 199 61 l 2
 188 50 174 43 157 43 c 3
 122 43 96 72 96 104 c 3
 96 120 103 136 114 147 c 2
 259 293 l 1
 114 439 l 2
 103 450 96 466 96 482 c 3
 96 514 122 543 157 543 c 3
EndSplineSet
EndChar

StartChar: less
Encoding: 60 60 168
Width: 614
Flags: W
LayerCount: 2
Fore
SplineSet
125 351 m 2
 580 552 l 2
 590 556 600 558 608 558 c 7
 640 558 660 535 660 506 c 7
 660 472 637 449 616 440 c 2
 287 295 l 1
 570 151 l 2
 587 142 597 124 597 104 c 3
 597 55 555 32 525 32 c 3
 517 32 508 34 499 38 c 2
 107 238 l 2
 90 247 79 264 79 285 c 3
 79 319 104 342 125 351 c 2
EndSplineSet
EndChar

StartChar: asciitilde
Encoding: 126 126 170
Width: 614
Flags: W
HStem: 201 102<409.82 511.812> 285 102<195.188 297.18>
LayerCount: 2
Fore
SplineSet
244 387 m 7x40
 300 387 343 362 372 346 c 4
 404 328 447 303 479 303 c 7
 520 303 514 367 572 367 c 7
 597 367 616 348 616 324 c 7
 616 264 529 201 463 201 c 7x80
 407 201 364 226 335 242 c 4
 303 260 260 285 228 285 c 7
 187 285 193 221 135 221 c 7
 110 221 91 240 91 264 c 7
 91 324 178 387 244 387 c 7x40
EndSplineSet
EndChar

StartChar: logicalnot
Encoding: 172 172 171
Width: 614
Flags: W
HStem: 329 122<120.09 506>
LayerCount: 2
Fore
SplineSet
587 451 m 3
 618 451 639 429 639 400 c 3
 639 397 639 393 638 390 c 2
 605 186 l 2
 600 153 571 124 536 124 c 7
 505 124 483 146 483 176 c 7
 483 179 482 183 483 186 c 2
 506 329 l 1
 151 329 l 2
 120 329 99 351 99 380 c 3
 99 427 142 451 170 451 c 2
 170 451 448 451 587 451 c 3
EndSplineSet
EndChar

StartChar: asciicircum
Encoding: 94 94 172
Width: 614
Flags: W
LayerCount: 2
Fore
SplineSet
461 635 m 2
 604 275 l 2
 607 268 607 260 607 253 c 3
 607 208 563 184 536 184 c 7
 513 184 495 196 488 215 c 2
 383 479 l 1
 194 215 l 2
 181 196 159 184 136 184 c 3
 105 184 84 206 84 235 c 3
 84 252 91 265 98 275 c 2
 355 635 l 2
 370 656 391 666 412 666 c 3
 433 666 453 656 461 635 c 2
EndSplineSet
EndChar

StartChar: percent
Encoding: 37 37 173
Width: 1023
Flags: W
HStem: -20 124<745.33 843.67> 261 124<762.179 864.363> 336 124<268.33 366.467> 617 124<285.179 387.055>
VStem: 133 127<467.268 589.891> 395 132<486.912 607.779> 610 127<111.268 233.891> 873 131<133.734 251.431>
LayerCount: 2
Fore
SplineSet
836 385 m 3xdf
 939 385 1004 321 1004 234 c 3
 1004 96 917 -20 773 -20 c 3
 670 -20 610 47 610 141 c 3
 610 267 692 385 836 385 c 3xdf
817 261 m 3
 768 261 737 223 737 171 c 3
 737 127 749 104 792 104 c 3
 841 104 873 144 873 203 c 3
 873 236 860 261 817 261 c 3
359 741 m 3
 462 741 527 677 527 590 c 3
 527 452 440 336 296 336 c 3xbf
 193 336 133 403 133 497 c 3
 133 623 215 741 359 741 c 3
340 617 m 3
 291 617 260 579 260 527 c 3
 260 483 272 460 315 460 c 3
 364 460 395 500 395 559 c 3
 395 592 383 617 340 617 c 3
180 40 m 7
 180 57 187 72 198 83 c 2
 855 724 l 2
 866 735 881 741 897 741 c 3
 930 741 957 714 957 681 c 3
 957 664 950 649 939 638 c 2
 282 -3 l 2
 271 -14 256 -20 240 -20 c 7
 207 -20 180 7 180 40 c 7
EndSplineSet
EndChar

StartChar: at
Encoding: 64 64 174
Width: 970
Flags: W
HStem: -183 124<410.737 688.773> 43 107<446.524 564.623> 45 125<740.905 811.932> 421 103<496.998 613.538> 623 124<418.267 693.972>
VStem: 93 125<143.86 419.002> 303 122<171.026 340.81> 635 105<229.182 344.351> 853 124<222.252 476.658>
LayerCount: 2
Fore
SplineSet
772 45 m 3xbf80
 703 45 664 68 640 116 c 1
 599 63 539 43 481 43 c 3xdf80
 357 43 303 163 303 260 c 3
 303 430 413 524 554 524 c 3
 592 524 632 507 658 481 c 1
 668 507 688 519 720 519 c 3
 755 519 777 488 777 458 c 3
 777 434 740 207 740 188 c 7
 740 171 760 170 771 170 c 7
 842 170 853 296 853 358 c 3
 853 541 727 623 566 623 c 3
 322 623 218 483 218 271 c 3
 218 49 374 -59 518 -59 c 3
 641 -59 684 -50 756 2 c 0
 767 10 778 14 791 14 c 3
 828 14 853 -14 853 -48 c 3
 853 -67 844 -87 827 -99 c 0
 730 -169 641 -183 518 -183 c 3
 310 -183 93 -14 93 271 c 3
 93 594 289 747 566 747 c 3
 826 747 977 581 977 358 c 3
 977 191 915 45 772 45 c 3xbf80
493 150 m 3
 588 150 635 242 635 323 c 3
 635 384 612 421 559 421 c 3
 477 421 425 323 425 255 c 3
 425 221 430 150 493 150 c 3
EndSplineSet
EndChar

StartChar: ampersand
Encoding: 38 38 175
Width: 724
Flags: W
HStem: -23 124<236.996 413.461> 625 124<374.367 494.568>
VStem: 75 126<134.533 247.482> 232 125<493.035 604.671> 501 126<540.58 616.322>
LayerCount: 2
Fore
SplineSet
264 424 m 1
 245 463 232 501 232 542 c 3
 232 670 332 749 470 749 c 3
 556 749 627 685 627 605 c 3
 627 493 524 413 451 374 c 1
 481 333 512 292 542 255 c 1
 558 279 572 303 586 327 c 0
 599 349 624 365 650 365 c 7
 686 365 703 339 703 313 c 7
 703 298 699 289 693 279 c 0
 672 243 648 204 620 165 c 1
 651 131 677 103 690 91 c 0
 700 82 706 68 706 53 c 3
 706 12 667 -18 633 -18 c 3
 618 -18 605 -13 596 -3 c 0
 582 11 557 35 530 65 c 1
 469 14 389 -23 296 -23 c 3
 165 -23 75 49 75 168 c 3
 75 298 182 378 264 424 c 1
501 588 m 3
 501 610 467 625 448 625 c 3
 399 625 357 605 357 564 c 3
 357 537 375 501 389 474 c 1
 430 491 501 542 501 588 c 3
455 151 m 1
 407 207 362 263 323 322 c 1
 265 284 201 256 201 190 c 3
 201 125 262 101 316 101 c 3
 378 101 418 120 455 151 c 1
EndSplineSet
EndChar

StartChar: degree
Encoding: 176 176 176
Width: 384
Flags: W
HStem: 406 102<232.209 333.791> 646 102<232.209 333.791>
VStem: 111 102<528.541 625.459> 353 102<528.541 625.459>
LayerCount: 2
Fore
SplineSet
213 577 m 7
 213 539 245 508 283 508 c 7
 321 508 353 539 353 577 c 7
 353 615 321 646 283 646 c 7
 245 646 213 615 213 577 c 7
111 577 m 7
 111 672 188 748 283 748 c 7
 378 748 455 672 455 577 c 7
 455 482 378 406 283 406 c 7
 188 406 111 482 111 577 c 7
EndSplineSet
EndChar

StartChar: bar
Encoding: 124 124 177
Width: 281
Flags: W
VStem: 55 255
LayerCount: 2
Fore
SplineSet
309 684 m 2
 178 -148 l 2
 173 -182 141 -209 107 -209 c 7
 76 -209 55 -187 55 -158 c 0
 55 -155 55 -151 56 -148 c 2
 187 684 l 2
 192 718 224 745 258 745 c 7
 289 745 310 723 310 694 c 0
 310 691 310 687 309 684 c 2
EndSplineSet
EndChar

StartChar: brokenbar
Encoding: 166 166 178
Width: 281
Flags: W
VStem: 56 254
LayerCount: 2
Fore
SplineSet
228 164 m 2
 179 -146 l 2
 174 -180 142 -207 108 -207 c 7
 77 -207 56 -185 56 -156 c 0
 56 -153 56 -149 57 -146 c 2
 106 164 l 2
 111 198 143 225 177 225 c 7
 208 225 229 203 229 174 c 0
 229 171 229 167 228 164 c 2
310 684 m 2
 261 374 l 2
 256 340 225 313 191 313 c 7
 160 313 138 335 138 364 c 0
 138 367 138 371 139 374 c 2
 188 684 l 2
 193 718 225 745 259 745 c 7
 290 745 311 723 311 694 c 0
 311 691 311 687 310 684 c 2
EndSplineSet
EndChar

StartChar: dieresis
Encoding: 168 168 179
Width: 512
Flags: W
HStem: 598 141<218.682 320.794 403.206 505.318>
VStem: 199 141<617.206 719.318> 384 141<617.206 719.318>
LayerCount: 2
Fore
SplineSet
384 668 m 4
 384 707 415 739 454 739 c 4
 493 739 525 707 525 668 c 4
 525 629 493 598 454 598 c 4
 415 598 384 629 384 668 c 4
199 668 m 4
 199 707 231 739 270 739 c 4
 309 739 340 707 340 668 c 4
 340 629 309 598 270 598 c 4
 231 598 199 629 199 668 c 4
EndSplineSet
EndChar

StartChar: grave
Encoding: 96 96 180
Width: 512
Flags: W
HStem: 541 263<212 292>
VStem: 151 202
LayerCount: 2
Fore
SplineSet
151 743 m 7
 151 777 178 804 212 804 c 7
 235 804 254 792 265 773 c 6
 345 632 l 6
 350 623 353 613 353 602 c 7
 353 568 326 541 292 541 c 7
 269 541 250 553 239 572 c 6
 159 713 l 6
 154 722 151 732 151 743 c 7
EndSplineSet
EndChar

StartChar: acute
Encoding: 180 180 181
Width: 512
Flags: W
HStem: 540 264<329 410>
VStem: 268 203
LayerCount: 2
Fore
SplineSet
471 743 m 7
 471 732 468 722 463 713 c 6
 382 571 l 6
 371 552 352 540 329 540 c 7
 295 540 268 567 268 601 c 7
 268 612 271 622 276 632 c 6
 357 774 l 6
 368 793 388 804 410 804 c 7
 444 804 471 777 471 743 c 7
EndSplineSet
EndChar

StartChar: circumflex
Encoding: 710 710 182
Width: 512
Flags: W
HStem: 541 276
VStem: 190 320<564 602>
LayerCount: 2
Fore
SplineSet
190 592 m 3
 190 602 193 611 197 618 c 2
 306 792 l 2
 315 806 331 817 350 817 c 3
 369 817 385 806 394 792 c 2
 503 618 l 2
 507 611 510 602 510 592 c 7
 510 564 487 541 459 541 c 7
 441 541 424 550 415 565 c 2
 350 670 l 1
 285 565 l 2
 276 550 259 541 241 541 c 3
 213 541 190 564 190 592 c 3
EndSplineSet
EndChar

StartChar: macron
Encoding: 175 175 184
Width: 512
Flags: W
HStem: 608 122<201.107 522.893>
VStem: 186 352<621.422 715.441>
LayerCount: 2
Fore
SplineSet
247 730 m 2
 477 730 l 2
 511 730 538 701 538 668 c 7
 538 634 510 608 477 608 c 2
 247 608 l 2
 214 608 186 634 186 668 c 7
 186 701 213 730 247 730 c 2
EndSplineSet
EndChar

StartChar: cedilla
Encoding: 184 184 185
Width: 512
Flags: W
HStem: -215 92<138.054 269.744> -109 165<205.926 270.667>
VStem: 197 91<-12.6711 46.3513>
LayerCount: 2
Fore
SplineSet
207 -109 m 0
 184 -109 167 -92 167 -70 c 0
 167 -68 168 -65 168 -63 c 0
 170 -52 187 -8 197 19 c 0
 205 41 228 56 249 56 c 3
 272 56 288 39 288 17 c 0
 288 15 288 13 288 10 c 0
 287 2 283 -6 280 -13 c 1
 321 -18 365 -43 365 -95 c 0
 365 -100 364 -106 363 -112 c 4
 352 -181 279 -215 220 -215 c 7
 176 -215 105 -212 105 -166 c 0
 105 -163 106 -161 106 -158 c 0
 110 -133 134 -112 159 -112 c 3
 166 -112 172 -113 178 -116 c 0
 189 -121 203 -123 235 -123 c 3
 242 -123 270 -116 271 -111 c 0
 272 -105 250 -104 244 -104 c 3
 225 -104 223 -109 207 -109 c 0
EndSplineSet
EndChar

StartChar: notequal
Encoding: 8800 8800 187
Width: 614
Flags: W
HStem: 130 122<95.8291 238 404 612.171> 341 122<95.8291 304 469 612.171> 709 20G<458.5 488>
VStem: 176 119<-121.159 -70.1648> 413 119<664.062 714.88>
LayerCount: 2
Fore
SplineSet
471 729 m 0
 505 729 532 702 532 668 c 0
 532 660 529 655 528 650 c 2
 469 463 l 1
 565 463 l 2
 599 463 626 436 626 402 c 0
 626 368 599 341 565 341 c 2
 432 341 l 1
 404 252 l 1
 565 252 l 2
 599 252 626 225 626 191 c 0
 626 157 599 130 565 130 c 2
 365 130 l 1
 295 -93 l 2
 287 -118 264 -135 238 -135 c 0
 200 -135 176 -105 176 -74 c 0
 176 -66 179 -61 180 -56 c 2
 238 130 l 1
 143 130 l 2
 109 130 82 157 82 191 c 0
 82 225 109 252 143 252 c 2
 276 252 l 1
 304 341 l 1
 143 341 l 2
 109 341 82 368 82 402 c 0
 82 436 109 463 143 463 c 2
 343 463 l 1
 413 687 l 2
 421 713 446 729 471 729 c 0
EndSplineSet
EndChar
